<svg width="221" height="222" viewBox="0 0 221 222" fill="none" xmlns="http://www.w3.org/2000/svg">
<path d="M214.751 107.262L179.446 118.178C172.798 120.233 170.868 128.713 175.971 133.443L203.076 158.563C205.927 161.205 206.097 165.658 203.455 168.51L175.496 198.683C172.854 201.535 168.4 201.704 165.548 199.062L138.447 173.944C133.344 169.214 125.034 171.783 123.49 178.568L115.236 214.836C114.373 218.626 110.601 221 106.81 220.137L66.6991 211.008C62.9085 210.146 60.535 206.374 61.3976 202.583L69.6516 166.315C71.1957 159.531 64.8157 153.619 58.1679 155.674L22.8665 166.589C19.1522 167.738 15.2101 165.658 14.0621 161.943L1.91509 122.642C0.767215 118.929 2.84713 114.987 6.56088 113.839L41.8667 102.923C48.5141 100.868 50.444 92.3872 45.3408 87.6576L18.2359 62.5377C15.3848 59.8954 15.2153 55.4422 17.8573 52.5908L45.816 22.4174C48.4584 19.5656 52.9124 19.3962 55.7639 22.0389L82.8648 47.1562C87.9684 51.8861 96.2785 49.3174 97.8226 42.5325L105.971 6.72983C106.833 2.93926 110.606 0.56574 114.396 1.42841L154.507 10.5571C158.298 11.4198 160.671 15.192 159.809 18.9825L151.661 54.7852C150.117 61.5701 156.497 67.4821 163.144 65.4265L198.446 54.5111C202.16 53.3626 206.102 55.4429 207.25 59.1574L219.397 98.4582C220.545 102.172 218.465 106.113 214.751 107.262Z" fill="#00E440" stroke="black" stroke-width="2"/>
</svg>
