<svg width="216" height="217" viewBox="0 0 216 217" fill="none" xmlns="http://www.w3.org/2000/svg">
<path d="M79.2736 174.572L79.134 172.597L77.6275 173.881L58.0373 190.575C44.3287 202.257 24.7396 185.958 33.7353 170.354L45.8022 149.423L46.8326 147.635L44.7911 147.934L21.3166 151.367C3.36244 153.992 -4.4632 129.472 11.6926 121.211L31.6726 110.995L33.5726 110.024L31.6103 109.185L11.1019 100.423C-5.61733 93.2788 0.568685 68.223 18.6915 69.6814L41.396 71.5085L43.4967 71.6776L42.2991 69.9434L29.152 50.9075C18.8762 36.0288 37.2405 18.1657 51.8292 28.8491L71.8645 43.5211L73.4906 44.7119L73.4552 42.6967L73.0121 17.498C72.6964 -0.453809 97.6082 -5.28897 104.031 11.4775L113.385 35.8957L114.088 37.7316L115.158 36.0821L129.385 14.1423C139.153 -0.922422 162.515 8.98655 158.474 26.4805L152.802 51.0363L152.348 53.0001L154.186 52.1734L176.834 41.9876C193.325 34.5708 207.574 55.8618 194.429 68.2788L177.612 84.1654L176.08 85.6126L178.17 85.884L200.758 88.8174C218.788 91.1588 219.629 116.953 201.79 120.465L179.908 124.772L177.814 125.184L179.471 126.53L196.89 140.676C210.976 152.115 198.223 174.473 181.207 168.172L158.959 159.933L157.024 159.217L157.661 161.18L165.112 184.162C170.667 201.295 148.117 213.166 137.137 198.889L121.446 178.487L120.239 176.918L119.692 178.82L112.522 203.753C107.565 220.988 82.3681 218.339 81.1034 200.451L79.2736 174.572Z" fill="#EF8421" stroke="black" stroke-width="2"/>
</svg>
