<svg width="84" height="110" viewBox="0 0 84 110" fill="none" xmlns="http://www.w3.org/2000/svg">
<path d="M22.457 30.3384L37.0018 25.6466C38.113 25.2881 38.9759 24.4046 39.3079 23.2851L43.3707 9.58788C43.9573 7.61028 46.7347 7.54631 47.4117 9.49478L52.2554 23.4354C52.6148 24.4696 53.4327 25.2792 54.4705 25.6281L68.5095 30.3471C70.4696 31.0059 70.4271 33.793 68.4478 34.3917L54.5075 38.609C53.457 38.9268 52.6134 39.714 52.2239 40.74L47.3892 53.4755C46.6774 55.3503 44.0028 55.2842 43.3845 53.3765L39.3409 40.8988C38.9792 39.7828 38.0879 38.9186 36.9613 38.5915L22.5169 34.398C20.5065 33.8143 20.4647 30.9811 22.457 30.3384Z" fill="url(#paint0_linear_163_6656)" stroke="black" stroke-width="1.41542"/>
<path d="M9.01074 68.7707L14.8381 66.8909C15.9493 66.5325 16.8121 65.6489 17.1442 64.5295L18.7463 59.1279C19.3329 57.1503 22.1103 57.0863 22.7873 59.0348L24.7487 64.6797C25.1081 65.714 25.926 66.5236 26.9638 66.8725L32.6368 68.7794C34.5969 69.4382 34.5544 72.2252 32.5751 72.824L27.0007 74.5104C25.9503 74.8282 25.1067 75.6154 24.7172 76.6414L22.7648 81.7842C22.0531 83.6591 19.3784 83.5929 18.7602 81.6852L17.1771 76.8002C16.8154 75.6842 15.9241 74.82 14.7975 74.4929L9.07059 72.8303C7.06019 72.2466 7.01842 69.4134 9.01074 68.7707Z" fill="url(#paint1_linear_163_6656)" stroke="black" stroke-width="1.41542"/>
<path d="M51.4736 88.5862L57.3009 86.7064C58.4122 86.3479 59.275 85.4644 59.6071 84.3449L61.2092 78.9433C61.7958 76.9657 64.5732 76.9018 65.2502 78.8502L67.2116 84.4952C67.5709 85.5294 68.3888 86.3391 69.4267 86.6879L75.0997 88.5948C77.0598 89.2537 77.0173 92.0407 75.038 92.6394L69.4636 94.3258C68.4132 94.6436 67.5696 95.4308 67.1801 96.4569L65.2277 101.6C64.516 103.474 61.8413 103.408 61.2231 101.501L59.64 96.6157C59.2783 95.4996 58.387 94.6354 57.2604 94.3083L51.5335 92.6457C49.5231 92.062 49.4813 89.2288 51.4736 88.5862Z" fill="url(#paint2_linear_163_6656)" stroke="black" stroke-width="1.41542"/>
<defs>
<linearGradient id="paint0_linear_163_6656" x1="45.2932" y1="0.954102" x2="45.2932" y2="61.2536" gradientUnits="userSpaceOnUse">
<stop stop-color="#30EDF9"/>
<stop offset="1" stop-color="#4636FF"/>
</linearGradient>
<linearGradient id="paint1_linear_163_6656" x1="20.6337" y1="50.4941" x2="20.6337" y2="89.5623" gradientUnits="userSpaceOnUse">
<stop stop-color="#30EDF9"/>
<stop offset="1" stop-color="#4636FF"/>
</linearGradient>
<linearGradient id="paint2_linear_163_6656" x1="63.0966" y1="70.3096" x2="63.0966" y2="109.378" gradientUnits="userSpaceOnUse">
<stop stop-color="#30EDF9"/>
<stop offset="1" stop-color="#4636FF"/>
</linearGradient>
</defs>
</svg>
