<svg width="195" height="88" viewBox="0 0 195 88" fill="none" xmlns="http://www.w3.org/2000/svg">
<path d="M193.673 44.0767C193.673 49.7513 191.112 55.2307 186.334 60.2969C181.55 65.3685 174.581 69.9811 165.894 73.8765C148.522 81.6665 124.452 86.5105 97.8125 86.5105C71.1728 86.5105 47.1032 81.6665 29.7311 73.8765C21.0438 69.9811 14.0751 65.3685 9.29137 60.2969C4.5127 55.2307 1.95215 49.7513 1.95215 44.0767C1.95215 38.402 4.5127 32.9226 9.29137 27.8564C14.0751 22.7848 21.0438 18.1723 29.7311 14.2768C47.1032 6.48679 71.1728 1.64282 97.8125 1.64282C124.452 1.64282 148.522 6.48679 165.894 14.2768C174.581 18.1723 181.55 22.7848 186.334 27.8564C191.112 32.9226 193.673 38.402 193.673 44.0767Z" fill="#EF8421" stroke="black" stroke-width="2"/>
<path d="M53.865 45.9187C53.865 47.7979 53.5036 49.4963 52.7809 51.0141C52.0822 52.5318 51.0944 53.7364 49.8176 54.6278C48.5407 55.4951 47.035 55.9288 45.3004 55.9288C44.0718 55.9288 42.9395 55.6517 41.9035 55.0976C40.8676 54.5435 39.9762 53.7726 39.2294 52.7848L39.2294 55.5674L34.6038 55.5674L34.6038 29.6208L39.6269 29.6208L39.6269 38.7635C40.3496 37.824 41.1808 37.1133 42.1204 36.6314C43.084 36.1496 44.144 35.9087 45.3004 35.9087C47.035 35.9087 48.5407 36.3423 49.8176 37.2096C51.0944 38.0769 52.0822 39.2695 52.7809 40.7872C53.5036 42.305 53.865 44.0155 53.865 45.9187ZM48.6973 45.9187C48.6973 44.0637 48.2516 42.6784 47.3603 41.7629C46.4689 40.8234 45.4088 40.3536 44.1802 40.3536C43.3611 40.3536 42.6022 40.5584 41.9035 40.9679C41.229 41.3775 40.6869 41.9918 40.2773 42.8109C39.8678 43.63 39.663 44.6419 39.663 45.8464C39.663 47.051 39.8557 48.0749 40.2412 48.9181C40.6508 49.7372 41.2049 50.3636 41.9035 50.7973C42.6022 51.2309 43.3611 51.4477 44.1802 51.4477C45.4088 51.4477 46.4689 50.9779 47.3603 50.0384C48.2516 49.0988 48.6973 47.7256 48.6973 45.9187ZM74.8794 36.2701L65.4837 62.5419L60.0269 62.5419L62.7734 55.3506L55.1845 36.2701L60.6051 36.2701L65.4475 49.4963L69.8563 36.2701L74.8794 36.2701ZM91.8269 55.5674L86.8038 55.5674L86.8038 29.6208L91.8269 29.6208L91.8269 44.4371L98.8737 36.2701L104.656 36.2701L96.6693 45.5212L105.595 55.5674L99.1989 55.5674L91.8269 46.6053L91.8269 55.5674ZM116.32 55.9288C114.923 55.9288 113.622 55.6758 112.417 55.1699C111.237 54.6639 110.201 53.9532 109.309 53.0378C108.442 52.1223 107.756 51.0623 107.25 49.8577C106.768 48.629 106.527 47.316 106.527 45.9187C106.527 44.4973 106.768 43.1843 107.25 41.9798C107.756 40.7752 108.442 39.7152 109.309 38.7997C110.201 37.8842 111.237 37.1735 112.417 36.6676C113.622 36.1617 114.923 35.9087 116.32 35.9087C117.717 35.9087 119.006 36.1617 120.187 36.6676C121.391 37.1735 122.427 37.8842 123.295 38.7997C124.186 39.7152 124.873 40.7752 125.354 41.9798C125.86 43.1843 126.113 44.4973 126.113 45.9187C126.113 47.316 125.86 48.629 125.354 49.8577C124.873 51.0623 124.186 52.1223 123.295 53.0378C122.427 53.9532 121.391 54.6639 120.187 55.1699C119.006 55.6758 117.717 55.9288 116.32 55.9288ZM116.32 51.4839C117.163 51.4839 117.934 51.267 118.633 50.8334C119.332 50.3997 119.886 49.7734 120.295 48.9543C120.729 48.1111 120.946 47.0992 120.946 45.9187C120.946 44.7141 120.729 43.7023 120.295 42.8832C119.886 42.0641 119.332 41.4497 118.633 41.0402C117.934 40.6065 117.163 40.3897 116.32 40.3897C115.501 40.3897 114.73 40.6065 114.007 41.0402C113.309 41.4497 112.743 42.0641 112.309 42.8832C111.899 43.7023 111.695 44.7141 111.695 45.9187C111.695 47.0992 111.899 48.1111 112.309 48.9543C112.743 49.7734 113.309 50.3997 114.007 50.8334C114.73 51.267 115.501 51.4839 116.32 51.4839ZM135.426 46.2078L135.426 55.5674L130.403 55.5674L130.403 36.2701L135.028 36.2701L135.028 39.9922C135.751 38.7635 136.799 37.7999 138.172 37.1012C139.546 36.4026 141.003 36.0532 142.545 36.0532L142.545 41.257C141.148 41.1606 139.907 41.2329 138.823 41.4738C137.763 41.6907 136.932 42.1845 136.329 42.9555C135.727 43.7023 135.426 44.7864 135.426 46.2078ZM157.73 55.5674L157.73 53.1823C157.104 54.0737 156.309 54.7603 155.345 55.2421C154.381 55.6999 153.237 55.9288 151.912 55.9288C149.912 55.9288 148.298 55.3867 147.07 54.3026C145.841 53.2185 145.227 51.773 145.227 49.9661C145.227 48.087 145.973 46.6535 147.467 45.6658C148.961 44.678 151.105 44.1841 153.899 44.1841C154.454 44.1841 154.984 44.2082 155.49 44.2564C155.995 44.2805 156.538 44.3287 157.116 44.401L157.116 43.2446C157.116 42.1604 156.827 41.3172 156.248 40.715C155.67 40.1127 154.851 39.8115 153.791 39.8115C152.707 39.8115 151.852 40.1127 151.225 40.715C150.599 41.3172 150.238 42.1604 150.141 43.2446L145.624 43.2446C145.72 41.7509 146.118 40.462 146.817 39.3779C147.539 38.2697 148.491 37.4144 149.671 36.8121C150.876 36.2098 152.249 35.9087 153.791 35.9087C156.321 35.9087 158.284 36.5712 159.681 37.8962C161.103 39.2213 161.814 41.0643 161.814 43.4253L161.814 55.5674L157.73 55.5674ZM149.961 49.8216C149.961 50.6166 150.226 51.255 150.756 51.7368C151.31 52.2187 152.056 52.4596 152.996 52.4596C154.273 52.4596 155.273 52.1343 155.995 51.4839C156.742 50.8093 157.116 49.9179 157.116 48.8097L157.116 47.4365C156.538 47.3401 156.02 47.2799 155.562 47.2558C155.104 47.2076 154.658 47.1835 154.225 47.1835C152.827 47.1835 151.767 47.4004 151.045 47.834C150.322 48.2676 149.961 48.9302 149.961 49.8216Z" fill="black"/>
</svg>
