<svg width="1219" height="2258" viewBox="0 0 1219 2258" fill="none" xmlns="http://www.w3.org/2000/svg">
<g clip-path="url(#clip0_168_304)">
<rect width="1218.65" height="2258" transform="translate(0.0558167)" fill="#FFF9F3"/>
<path d="M1028.22 128.743L1028.08 126.769L1026.57 128.053L977.437 169.926C941.764 200.325 890.789 157.909 914.197 117.305L944.464 64.8045L945.494 63.0171L943.453 63.3156L884.573 71.9259C837.852 78.7582 817.488 14.9501 859.529 -6.5458L909.644 -32.1695L911.544 -33.141L909.581 -33.9795L858.142 -55.9585C814.634 -74.5483 830.732 -139.749 877.892 -135.954L934.84 -131.372L936.941 -131.203L935.743 -132.937L902.767 -180.683C876.027 -219.401 923.815 -265.885 961.779 -238.084L1012.03 -201.284L1013.66 -200.093L1013.62 -202.108L1012.51 -265.312C1011.69 -312.027 1076.52 -324.609 1093.23 -280.979L1116.69 -219.732L1117.4 -217.897L1118.46 -219.546L1154.15 -274.576C1179.57 -313.778 1240.36 -287.992 1229.85 -242.469L1215.62 -180.878L1215.16 -178.914L1217 -179.74L1273.81 -205.289C1316.72 -224.589 1353.8 -169.185 1319.6 -136.873L1277.41 -97.0256L1275.88 -95.5784L1277.97 -95.307L1334.63 -87.9494C1381.55 -81.8565 1383.74 -14.7332 1337.31 -5.59541L1282.43 5.20842L1280.34 5.62058L1281.99 6.96583L1325.68 42.449C1362.34 72.2161 1329.15 130.396 1284.87 113.999L1229.07 93.3351L1227.13 92.6187L1227.77 94.5813L1246.46 152.227C1260.92 196.811 1202.24 227.702 1173.66 190.55L1134.31 139.376L1133.1 137.807L1132.55 139.709L1114.57 202.247C1101.67 247.095 1036.1 240.204 1032.81 193.654L1028.22 128.743Z" fill="#2BADE5" stroke="black" stroke-width="2"/>
<path d="M175.22 2178.74L175.08 2176.77L173.574 2178.05L124.437 2219.93C88.7642 2250.33 37.7885 2207.91 61.1972 2167.3L91.4638 2114.8L92.4942 2113.02L90.4527 2113.32L31.5735 2121.93C-15.1476 2128.76 -35.5117 2064.95 6.52949 2043.45L56.6438 2017.83L58.5437 2016.86L56.5814 2016.02L5.14169 1994.04C-38.3657 1975.45 -22.268 1910.25 24.892 1914.05L81.8398 1918.63L83.9405 1918.8L82.7429 1917.06L49.7672 1869.32C23.027 1830.6 70.8152 1784.11 108.779 1811.92L159.032 1848.72L160.658 1849.91L160.622 1847.89L159.511 1784.69C158.69 1737.97 223.516 1725.39 240.23 1769.02L263.692 1830.27L264.395 1832.1L265.465 1830.45L301.148 1775.42C326.568 1736.22 387.362 1762.01 376.846 1807.53L362.618 1869.12L362.164 1871.09L364.002 1870.26L420.809 1844.71C463.722 1825.41 500.802 1880.82 466.596 1913.13L424.414 1952.97L422.882 1954.42L424.972 1954.69L481.628 1962.05C528.547 1968.14 530.736 2035.27 484.315 2044.4L429.429 2055.21L427.336 2055.62L428.992 2056.97L472.684 2092.45C509.337 2122.22 476.151 2180.4 431.872 2164L376.069 2143.34L374.134 2142.62L374.771 2144.58L393.461 2202.23C407.916 2246.81 349.235 2277.7 320.662 2240.55L281.305 2189.38L280.099 2187.81L279.552 2189.71L261.567 2252.25C248.669 2297.1 183.1 2290.2 179.809 2243.65L175.22 2178.74Z" fill="#00E440" stroke="black" stroke-width="2"/>
</g>
<defs>
<clipPath id="clip0_168_304">
<rect width="1218.65" height="2258" fill="white" transform="translate(0.0558167)"/>
</clipPath>
</defs>
</svg>
