<svg width="1822" height="361" viewBox="0 0 1822 361" fill="none" xmlns="http://www.w3.org/2000/svg">
<path d="M287.286 215.239C278.982 208.739 266.857 207.986 257.895 213.46C245.967 188.451 212.787 177.435 189.097 190.606C182.902 163.648 157.366 142.949 130.677 143.292C103.988 143.634 78.9138 164.982 73.3783 192.043C72.4887 196.354 71.8956 201.075 68.9301 204.223C64.1195 209.32 56.0799 207.61 49.1934 207.062C27.5786 205.318 5.86499 221.055 0 242.711L297.467 241.582C300.07 231.113 295.589 221.773 287.286 215.273V215.239Z" fill="white"/>
<path d="M1809.01 79.6619C1799.83 72.4697 1786.42 71.6334 1776.47 77.6966C1763.27 50.0151 1726.54 37.8052 1700.32 52.3986C1693.47 22.5846 1665.16 -0.371773 1635.64 0.0045611C1606.12 0.380895 1578.34 24.0063 1572.22 53.9876C1571.25 58.7545 1570.6 63.9813 1567.3 67.4519C1561.99 73.0969 1553.05 71.2153 1545.48 70.5881C1521.55 68.6646 1497.51 86.1014 1490.99 110.061L1820.29 108.807C1823.19 97.2241 1818.2 86.8959 1809.01 79.6619Z" fill="white"/>
<path d="M1437.86 53.5702C1431.69 48.7337 1422.67 48.1713 1415.98 52.2486C1407.1 33.6336 1382.4 25.4228 1364.77 35.2364C1360.17 15.1874 1341.13 -0.250006 1321.28 0.0030672C1301.43 0.25614 1282.74 16.1435 1278.62 36.305C1277.97 39.5106 1277.54 43.0255 1275.32 45.3594C1271.74 49.1554 1265.73 47.8901 1260.64 47.4683C1244.55 46.1748 1228.39 57.9005 1224 74.0128L1445.45 73.1693C1447.4 65.3802 1444.04 58.4348 1437.86 53.5702Z" fill="white"/>
<path d="M390.177 342.599C384.905 338.459 377.228 338.015 371.528 341.47C363.982 325.63 342.928 318.616 327.903 326.964C323.982 309.892 307.771 296.755 290.868 296.96C273.965 297.166 258.05 310.714 254.525 327.888C253.964 330.625 253.602 333.601 251.724 335.586C248.66 338.836 243.585 337.741 239.203 337.399C225.496 336.304 211.723 346.26 208 360.013L396.635 359.294C398.283 352.657 395.449 346.739 390.177 342.599Z" fill="white"/>
</svg>
