<svg width="797" height="476" viewBox="0 0 797 476" fill="none" xmlns="http://www.w3.org/2000/svg">
<path d="M584.354 425.428L582.253 422.302C580.359 419.482 576.158 419.645 574.487 422.602C537 488.945 442.78 492.586 400.284 429.335L395.559 422.302C393.664 419.482 389.464 419.645 387.792 422.602C350.306 488.945 256.085 492.586 213.589 429.335L208.645 421.976C206.851 419.306 202.874 419.46 201.291 422.26C165.053 486.393 72.8941 487.01 35.8006 423.368L32.6652 417.989C32.4078 417.547 32.0323 417.186 31.5809 416.946C-0.589172 399.845 -4.03198 355.087 25.1443 333.268L29.855 329.745C31.5016 328.513 31.2585 325.975 29.408 325.079C-6.46315 307.702 -8.18853 257.24 26.412 237.454L29.413 235.738C31.2056 234.712 31.0281 232.072 29.1144 231.296C-5.63116 217.208 -5.36276 167.87 29.413 153.77C31.2198 153.037 31.5289 150.584 29.9214 149.446L25.4326 146.269C-3.27303 125.951 -0.245132 82.4413 30.9981 66.2955C31.8298 65.8657 32.5195 65.2046 32.9841 64.3919L39.1928 53.5316C74.9444 -9.0053 164.954 -9.48438 201.369 52.6684C202.942 55.354 206.77 55.5043 208.549 52.9503L213.817 45.3882C256.931 -16.5 349.671 -12.8589 387.8 52.219C389.497 55.1145 393.623 55.2765 395.541 52.523L400.512 45.3881C443.626 -16.5 536.366 -12.8589 574.495 52.219C576.191 55.1145 580.317 55.2765 582.236 52.523L585.492 47.8481C629.395 -15.1724 724.529 -10.3512 763.377 55.952C763.9 56.8462 764.687 57.5744 765.627 58.0225C803.452 76.059 804.402 129.659 767.394 149.361C765.469 150.386 765.54 153.201 767.559 154.091C804.327 170.297 804.223 222.521 767.446 238.731C765.476 239.599 765.32 242.345 767.194 243.421L770.095 245.085C801.474 263.093 800.013 308.839 767.549 324.808C765.561 325.786 765.643 328.64 767.669 329.515C803.608 345.038 805.707 395.283 771.13 413.624L764.881 416.938C764.415 417.186 764.029 417.563 763.77 418.021C725.216 486.252 628.05 490.466 584.354 425.428Z" fill="#EF8421" stroke="black" stroke-width="2"/>
</svg>
