<svg width="265" height="265" viewBox="0 0 265 265" fill="none" xmlns="http://www.w3.org/2000/svg">
<path d="M144.571 69.3707L203.611 21.6632L185.062 95.2681L184.781 96.3853L185.926 96.5069L261.408 104.52L196.246 143.451L195.257 144.042L195.981 144.938L243.689 203.978L170.084 185.43L168.967 185.148L168.845 186.294L160.832 261.776L121.901 196.614L121.31 195.625L120.414 196.349L61.3737 244.056L79.922 170.451L80.2035 169.334L79.0579 169.212L3.57601 161.199L68.7382 122.268L69.7273 121.677L69.0032 120.781L21.2957 61.7412L94.9006 80.2895L96.0178 80.571L96.1394 79.4254L104.153 3.94351L143.084 69.1058L143.675 70.0948L144.571 69.3707Z" fill="#A580FF" stroke="black" stroke-width="2"/>
</svg>
