<svg width="206" height="206" viewBox="0 0 206 206" fill="none" xmlns="http://www.w3.org/2000/svg">
<path d="M80.8098 2.056L115.673 29.211L116.089 29.5351L116.591 29.3746L158.688 15.9309L164.138 59.7842L164.203 60.3077L164.672 60.5495L203.944 80.8098L176.789 115.673L176.465 116.089L176.626 116.591L190.07 158.688L146.216 164.138L145.693 164.203L145.451 164.672L125.191 203.944L90.3277 176.789L89.9115 176.465L89.409 176.626L47.3129 190.069L41.8625 146.216L41.7975 145.693L41.3286 145.451L2.05603 125.191L29.211 90.3276L29.5352 89.9115L29.3747 89.4089L15.9309 47.3128L59.7842 41.8625L60.3077 41.7974L60.5496 41.3286L80.8098 2.056Z" fill="#A580FF" stroke="black" stroke-width="2"/>
</svg>
