<svg width="296" height="293" viewBox="0 0 296 293" fill="none" xmlns="http://www.w3.org/2000/svg">
<path d="M201.44 61.4982L201.107 64.1933L203.474 62.8624L234.045 45.6732C255.429 33.6499 277.342 60.5686 261.23 79.0683L239.609 103.895L237.75 106.029L240.577 106.166L272.867 107.728C297.552 108.922 301.589 143.747 277.83 150.556L248.436 158.98L245.621 159.787L248.042 161.433L273.169 178.526C293.645 192.454 278.813 224.324 254.971 217.627L225.09 209.233L222.306 208.451L223.461 211.102L236.052 240.002C245.889 262.581 216.663 281.647 199.963 263.545L177.017 238.675L175.142 236.643L174.658 239.365L168.646 273.177C164.365 297.254 129.801 297.191 125.608 273.098L119.499 237.994L119.037 235.337L117.162 237.276L92.388 262.885C75.3847 280.462 46.7543 261.097 56.7387 238.773L70.7597 207.423L71.8886 204.899L69.1957 205.527L36.2414 213.212C12.256 218.805 -1.21192 186.614 19.6106 173.461L46.2625 156.625L48.707 155.081L45.9649 154.164L16.5288 144.321C-6.95725 136.468 -1.32445 101.771 23.4397 101.75L53.8293 101.726L56.7569 101.723L54.8817 99.4749L35.2963 75.9926C19.4663 57.0129 42.369 30.4701 63.4622 43.35L91.0527 60.1972L93.4685 61.6724L93.1297 58.8621L89.1892 26.177C86.2528 1.82137 119.504 -8.13803 130.44 13.8214L146.075 45.2159L147.285 47.6467L148.524 45.23L164.646 13.7688C175.786 -7.96899 208.771 2.17181 205.776 26.4133L201.44 61.4982Z" fill="#FBF214" stroke="black" stroke-width="2.74386"/>
</svg>
