<svg width="52" height="52" viewBox="0 0 52 52" fill="none" xmlns="http://www.w3.org/2000/svg">
<path d="M41.6431 23.3462C39.9014 24.3519 39.9014 26.8659 41.6431 27.8716L49.2156 32.2439C49.7854 32.5729 49.9806 33.3015 49.6516 33.8714L44.7855 42.3008C44.4565 42.8707 43.7278 43.066 43.1579 42.7369L35.5865 38.365C33.8447 37.3592 31.6672 38.6163 31.6672 40.6277V49.4285C31.6672 50.0865 31.1338 50.6199 30.4758 50.6199H20.7423C20.0842 50.6199 19.5508 50.0865 19.5508 49.4285V40.6277C19.5508 38.6163 17.3734 37.3592 15.6315 38.365L8.06013 42.7369C7.49024 43.066 6.7615 42.8707 6.4325 42.3008L1.56645 33.8713C1.23751 33.3015 1.43274 32.5729 2.00255 32.2439L9.5749 27.8716C11.3166 26.8659 11.3166 24.3519 9.57489 23.3462L2.00245 18.9739C1.43264 18.6449 1.23741 17.9163 1.56636 17.3464L6.43249 8.91699C6.76149 8.34707 7.49023 8.15181 8.06012 8.48087L15.6315 12.8528C17.3734 13.8586 19.5508 12.6015 19.5508 10.5901V1.90211C19.5508 1.2441 20.0842 0.710674 20.7422 0.710674H30.4758C31.1338 0.710674 31.6672 1.2441 31.6672 1.90211V10.5901C31.6672 12.6015 33.8446 13.8586 35.5865 12.8528L43.1579 8.48088C43.7278 8.15181 44.4565 8.34708 44.7855 8.91701L49.6516 17.3464C49.9805 17.9163 49.7853 18.6449 49.2155 18.9739L41.6431 23.3462Z" fill="#00E440" stroke="black" stroke-width="1.42135"/>
<g clip-path="url(#clip0_113_5689)">
<path d="M25.5842 17.0561C23.8975 17.0561 22.2487 17.5563 20.8463 18.4934C19.4439 19.4304 18.3508 20.7623 17.7053 22.3206C17.0598 23.879 16.891 25.5937 17.22 27.248C17.5491 28.9022 18.3613 30.4218 19.554 31.6145C20.7466 32.8071 22.2662 33.6194 23.9205 33.9484C25.5748 34.2775 27.2895 34.1086 28.8478 33.4631C30.4061 32.8177 31.738 31.7246 32.6751 30.3222C33.6122 28.9197 34.1123 27.2709 34.1123 25.5842C34.1099 23.3232 33.2106 21.1554 31.6118 19.5566C30.013 17.9578 27.8453 17.0586 25.5842 17.0561V17.0561ZM25.5842 32.6909C24.1787 32.6909 22.8046 32.2741 21.6359 31.4932C20.4673 30.7123 19.5564 29.6024 19.0185 28.3038C18.4806 27.0052 18.3398 25.5763 18.6141 24.1978C18.8883 22.8192 19.5651 21.5529 20.559 20.559C21.5529 19.5651 22.8192 18.8882 24.1978 18.614C25.5764 18.3398 27.0053 18.4805 28.3039 19.0184C29.6025 19.5563 30.7124 20.4672 31.4933 21.6359C32.2742 22.8046 32.691 24.1786 32.691 25.5842C32.6889 27.4684 31.9395 29.2748 30.6072 30.6071C29.2749 31.9395 27.4684 32.6889 25.5842 32.6909ZM26.2949 24.8735H29.1376V26.2949H26.2949V29.1376H24.8736V26.2949H22.0309V24.8735H24.8736V22.0308H26.2949V24.8735Z" fill="black"/>
</g>
<defs>
<clipPath id="clip0_113_5689">
<rect width="17.0562" height="17.0562" fill="white" transform="translate(17.0562 17.0561)"/>
</clipPath>
</defs>
</svg>
