<svg width="54" height="56" viewBox="0 0 54 56" fill="none" xmlns="http://www.w3.org/2000/svg">
<path d="M38.8834 10.2395L40.0265 9.9705C50.3303 7.5457 57.2745 20.2394 49.6755 27.6085C49.274 27.9979 49.274 28.6422 49.6755 29.0316C57.2745 36.4007 50.3303 49.0944 40.0265 46.6696L38.8834 46.4006C38.369 46.2795 37.8495 46.5791 37.6959 47.0842C34.4696 57.6977 19.4352 57.6977 16.2089 47.0842C16.0554 46.5791 15.5358 46.2795 15.0214 46.4006L13.8784 46.6696C3.57455 49.0944 -3.36966 36.4007 4.22932 29.0316C4.63087 28.6422 4.63087 27.9979 4.22932 27.6085C-3.36966 20.2394 3.57455 7.5457 13.8784 9.9705L15.0214 10.2395C15.5358 10.3605 16.0554 10.061 16.2089 9.55587C19.4352 -1.05763 34.4696 -1.05763 37.6959 9.55587C37.8495 10.061 38.369 10.3606 38.8834 10.2395Z" fill="#EF8421" stroke="black" stroke-width="1.28731"/>
<path d="M27.8318 24.5134L19.3477 32.9988C18.9992 33.3726 18.8093 33.8671 18.8182 34.3781C18.827 34.8891 19.034 35.3768 19.3953 35.7382C19.7567 36.0997 20.2443 36.3067 20.7553 36.3157C21.2664 36.3247 21.7609 36.135 22.1348 35.7865L30.6208 27.3024L27.8318 24.5134ZM28.8005 27.3024L27.136 28.9669L26.1705 27.9982L27.835 26.3337L28.8005 27.3024ZM21.2247 34.8776C21.0945 35.0016 20.9217 35.0708 20.7419 35.0708C20.5621 35.0708 20.3893 35.0016 20.2592 34.8776C20.1313 34.7495 20.0596 34.5759 20.0596 34.3949C20.0596 34.2139 20.1313 34.0403 20.2592 33.9121L25.2597 28.9109L26.2284 29.8796L21.2247 34.8776ZM32.4996 30.3334L34.2162 31.192L32.4996 32.0532L31.6416 33.7667L30.7836 32.0532L29.067 31.192L30.7836 30.3334L31.6416 28.6174L32.4996 30.3334ZM23.0597 24.3506L21.3431 23.4926L23.0597 22.6346L23.9177 20.918L24.7757 22.6346L26.4923 23.4926L24.7757 24.3506L23.9177 26.0672L23.0597 24.3506ZM31.2123 23.9219L29.7106 23.1708L31.2123 22.4196L31.9634 20.918L32.7146 22.4196L34.2162 23.1708L32.7146 23.9219L31.9634 25.4236L31.2123 23.9219Z" fill="black"/>
</svg>
