<svg width="63" height="62" viewBox="0 0 63 62" fill="none" xmlns="http://www.w3.org/2000/svg">
<path d="M37.2212 17.7935L51.5339 10.6443L44.3847 24.957L44.0241 25.6791L44.7897 25.9346L59.9655 31L44.7897 36.0654L44.0241 36.3209L44.3847 37.043L51.5339 51.3557L37.2212 44.2065L36.4991 43.8459L36.2436 44.6114L31.1782 59.7873L26.1128 44.6114L25.8573 43.8459L25.1353 44.2065L10.8226 51.3557L17.9717 37.043L18.3324 36.3209L17.5668 36.0654L2.39096 31L17.5668 25.9346L18.3324 25.6791L17.9717 24.957L10.8226 10.6443L25.1353 17.7935L25.8573 18.1541L26.1128 17.3886L31.1782 2.21273L36.2436 17.3886L36.4991 18.1541L37.2212 17.7935Z" fill="#A580FF" stroke="black" stroke-width="1.40114"/>
<g clip-path="url(#clip0_113_5690)">
<path d="M28.3604 33.8182L33.3705 28.8081M29.6129 29.4343C29.6129 29.7802 29.3325 30.0606 28.9866 30.0606C28.6407 30.0606 28.3604 29.7802 28.3604 29.4343C28.3604 29.0885 28.6407 28.8081 28.9866 28.8081C29.3325 28.8081 29.6129 29.0885 29.6129 29.4343ZM33.3705 33.0844C33.3705 33.4303 33.0901 33.7107 32.7442 33.7107C32.3983 33.7107 32.1179 33.4303 32.1179 33.0844C32.1179 32.7385 32.3983 32.4582 32.7442 32.4582C33.0901 32.4582 33.3705 32.7385 33.3705 33.0844Z" stroke="black" stroke-width="1.25253" stroke-linecap="round"/>
<circle cx="30.8652" cy="31.3131" r="6.26263" stroke="black" stroke-width="1.25253"/>
</g>
<defs>
<clipPath id="clip0_113_5690">
<rect width="15.0303" height="15.0303" fill="white" transform="translate(23.3501 23.7979)"/>
</clipPath>
</defs>
</svg>
