<svg width="50" height="52" viewBox="0 0 50 52" fill="none" xmlns="http://www.w3.org/2000/svg">
<path d="M22.1598 51.11L0.710674 41.3135L0.710674 10.6449L25.3216 0.769367L48.3258 10.6329V41.278L22.1598 51.11Z" fill="#A580FF" stroke="black" stroke-width="1.42135"/>
<path d="M17.7671 22.0309C17.7671 21.0259 17.7671 20.5233 18.0793 20.2111C18.3915 19.8989 18.8941 19.8989 19.8991 19.8989C20.9042 19.8989 21.4067 19.8989 21.7189 20.2111C22.0311 20.5233 22.0311 21.0259 22.0311 22.0309C22.0311 23.0359 22.0311 23.5385 21.7189 23.8507C21.4067 24.1629 20.9042 24.1629 19.8991 24.1629C18.8941 24.1629 18.3915 24.1629 18.0793 23.8507C17.7671 23.5385 17.7671 23.0359 17.7671 22.0309Z" stroke="black" stroke-width="1.42135"/>
<path d="M17.7671 30.559C17.7671 29.5539 17.7671 29.0514 18.0793 28.7392C18.3915 28.4269 18.8941 28.4269 19.8991 28.4269C20.9042 28.4269 21.4067 28.4269 21.7189 28.7392C22.0311 29.0514 22.0311 29.5539 22.0311 30.559C22.0311 31.564 22.0311 32.0665 21.7189 32.3787C21.4067 32.691 20.9042 32.691 19.8991 32.691C18.8941 32.691 18.3915 32.691 18.0793 32.3787C17.7671 32.0665 17.7671 31.564 17.7671 30.559Z" stroke="black" stroke-width="1.42135"/>
<path d="M17.7671 26.295L22.0311 26.295" stroke="black" stroke-width="1.42135" stroke-linecap="round" stroke-linejoin="round"/>
<path d="M24.1628 19.8989V23.4522" stroke="black" stroke-width="1.42135" stroke-linecap="round" stroke-linejoin="round"/>
<path d="M26.2952 22.0309C26.2952 21.0258 26.2952 20.5233 26.6074 20.2111C26.9196 19.8989 27.4221 19.8989 28.4272 19.8989C29.4322 19.8989 29.9348 19.8989 30.247 20.2111C30.5592 20.5233 30.5592 21.0258 30.5592 22.0309C30.5592 23.0359 30.5592 23.5385 30.247 23.8507C29.9348 24.1629 29.4322 24.1629 28.4272 24.1629C27.4221 24.1629 26.9196 24.1629 26.6074 23.8507C26.2952 23.5385 26.2952 23.0359 26.2952 22.0309Z" stroke="black" stroke-width="1.42135"/>
<path d="M30.5589 26.295H26.2949C25.2898 26.295 24.7873 26.295 24.4751 26.6072C24.1628 26.9194 24.1628 27.4219 24.1628 28.427M24.1628 30.395V32.363M26.2949 28.427V29.493C26.2949 30.5209 26.8518 30.559 27.7162 30.559C28.1087 30.559 28.4269 30.8772 28.4269 31.2697M27.0055 32.691H26.2949M28.4269 28.427C29.4319 28.427 29.9344 28.427 30.2467 28.7397C30.5589 29.0523 30.5589 29.5556 30.5589 30.5621C30.5589 31.5686 30.5589 32.0718 30.2467 32.3845C30.0188 32.6127 29.6896 32.6744 29.1376 32.691" stroke="black" stroke-width="1.42135" stroke-linecap="round"/>
</svg>
