<svg width="63" height="38" viewBox="0 0 63 38" fill="none" xmlns="http://www.w3.org/2000/svg">
<path d="M62.1818 19C62.1818 23.9112 58.8849 28.473 53.3078 31.8437C47.7438 35.2066 40.0127 37.3091 31.4364 37.3091C22.86 37.3091 15.129 35.2066 9.56488 31.8437C3.9878 28.473 0.690909 23.9112 0.690909 19C0.690909 14.0888 3.9878 9.52703 9.56488 6.15627C15.129 2.79336 22.86 0.690909 31.4364 0.690909C40.0127 0.690909 47.7438 2.79336 53.3078 6.15627C58.8849 9.52703 62.1818 14.0888 62.1818 19Z" fill="#2BADE5" stroke="black" stroke-width="1.38182"/>
<g clip-path="url(#clip0_113_5693)">
<path d="M37.9312 15.8948H25.4209L28.3966 12.9205L27.4169 11.9449L23.9969 15.3642C23.6731 15.6881 23.4912 16.1274 23.4912 16.5854C23.4912 17.0434 23.6731 17.4827 23.9969 17.8066L27.4169 21.2273L28.3966 20.2503L25.4257 17.2794H37.9312C38.1187 17.2668 38.3037 17.3287 38.446 17.4515C38.5882 17.5744 38.6763 17.7484 38.6912 17.9358V25.6049C38.6762 25.7921 38.588 25.9659 38.4457 26.0887C38.3035 26.2114 38.1186 26.2731 37.9312 26.2605H24.873V27.6424H37.9312C38.4855 27.6552 39.0222 27.4476 39.4237 27.0653C39.8252 26.683 40.0587 26.157 40.073 25.6028V17.933C40.0583 17.379 39.8247 16.8534 39.4232 16.4714C39.0218 16.0893 38.4852 15.882 37.9312 15.8948Z" fill="black"/>
</g>
<defs>
<clipPath id="clip0_113_5693">
<rect width="16.5818" height="16.5818" fill="white" transform="translate(23.491 11.0545)"/>
</clipPath>
</defs>
</svg>
