<svg width="61" height="61" viewBox="0 0 61 61" fill="none" xmlns="http://www.w3.org/2000/svg">
<path d="M35.8787 11.6609L36.124 13.046L37.0935 12.0267L42.039 6.82667C45.1656 3.53918 50.5022 7.10675 48.6595 11.2526L45.9235 17.4082L45.328 18.7481L46.7487 18.3855L53.1578 16.7494C57.5865 15.619 60.1926 21.5556 56.3628 24.0504L51.1203 27.4655L49.8496 28.2932L51.2988 28.7401L57.241 30.5722C61.6175 31.9216 60.7275 38.3613 56.1491 38.4731L49.8001 38.6282L48.3028 38.6648L49.2781 39.8014L53.4784 44.6967C56.4444 48.1535 52.3142 53.112 48.3783 50.8197L42.3951 47.3353L41.1573 46.6145L41.3321 48.0361L42.1893 55.0105C42.7411 59.4994 36.6277 61.3666 34.5772 57.3355L31.2717 50.8372L30.6383 49.5919L30.0049 50.8372L26.6994 57.3355C24.6489 61.3666 18.5355 59.4994 19.0872 55.0105L19.9445 48.0361L20.1192 46.6145L18.8815 47.3353L12.8983 50.8198C8.96233 53.112 4.83215 48.1535 7.79816 44.6967L11.9985 39.8014L12.9738 38.6648L11.4765 38.6282L5.12751 38.4731C0.549078 38.3613 -0.340893 31.9216 4.03562 30.5722L9.97774 28.7401L11.427 28.2932L10.1563 27.4655L4.91377 24.0504C1.08401 21.5556 3.69008 15.6189 8.11873 16.7494L14.5279 18.3855L15.9486 18.7481L15.3531 17.4082L12.6171 11.2526C10.7744 7.10675 16.1109 3.53919 19.2375 6.82667L24.1831 12.0267L25.1525 13.046L25.3979 11.6609L26.6595 4.53827C27.4473 0.0902453 33.8293 0.0902452 34.6171 4.53827L35.8787 11.6609Z" fill="#EF8421" stroke="black" stroke-width="1.42135"/>
<g clip-path="url(#clip0_280_362)">
<path d="M30.3421 35.5646C29.3951 36.0069 28.1511 36.2753 26.7887 36.2753C26.0312 36.2753 25.3103 36.1923 24.6567 36.0426C24.2365 35.9464 24.0265 35.8983 23.7747 35.6991C23.6312 35.5855 23.452 35.3606 23.3733 35.1953C23.2354 34.9055 23.2354 34.6244 23.2354 34.0623V26.4069C23.2354 25.707 23.9745 25.2263 24.6567 25.3825C25.3103 25.5322 26.0312 25.6152 26.7887 25.6152C28.1511 25.6152 29.3951 25.3468 30.3421 24.9045C31.2891 24.4622 32.533 24.1938 33.8955 24.1938C34.653 24.1938 35.3739 24.2768 36.0275 24.4265C36.4476 24.5228 36.6577 24.5709 36.9094 24.7701C37.053 24.8837 37.2322 25.1085 37.3109 25.2738C37.4488 25.5637 37.4488 25.8447 37.4488 26.4069V34.0623C37.4488 34.7622 36.7097 35.2429 36.0275 35.0866C35.3739 34.9369 34.653 34.854 33.8955 34.854C32.533 34.854 31.2891 35.1223 30.3421 35.5646Z" stroke="black" stroke-width="1.42135"/>
<path d="M23.2351 37.6967C24.1821 38.139 25.4261 38.4073 26.7885 38.4073C28.1509 38.4073 29.3948 38.139 30.3418 37.6967C31.2888 37.2544 32.5328 36.986 33.8952 36.986C35.2576 36.986 36.5016 37.2544 37.4486 37.6967" stroke="black" stroke-width="1.42135" stroke-linecap="round"/>
<path d="M32.1188 30.2346C32.1188 31.2158 31.3233 32.0113 30.3421 32.0113C29.3609 32.0113 28.5654 31.2158 28.5654 30.2346C28.5654 29.2533 29.3609 28.4579 30.3421 28.4579C31.3233 28.4579 32.1188 29.2533 32.1188 30.2346Z" stroke="black" stroke-width="1.06601"/>
<path d="M25.7227 30.9453L25.7227 30.9516" stroke="black" stroke-width="1.42135" stroke-linecap="round" stroke-linejoin="round"/>
<path d="M34.9612 29.5184L34.9612 29.5253" stroke="black" stroke-width="1.42135" stroke-linecap="round" stroke-linejoin="round"/>
</g>
<defs>
<clipPath id="clip0_280_362">
<rect width="17.0562" height="17.0562" fill="white" transform="translate(21.8137 22.7725)"/>
</clipPath>
</defs>
</svg>
