<svg width="135" height="161" viewBox="0 0 135 161" fill="none" xmlns="http://www.w3.org/2000/svg">
<path d="M134.039 83.1429C128.891 84.7345 127.396 91.302 131.348 94.9647L151.579 113.713C153.604 115.59 153.724 118.754 151.848 120.779L130.98 143.3C129.103 145.325 125.939 145.446 123.914 143.568L103.686 124.822C99.7341 121.159 93.2985 123.148 92.1027 128.402L85.9422 155.471C85.3294 158.164 82.6499 159.85 79.9573 159.237L50.0196 152.424C47.327 151.811 45.641 149.131 46.2538 146.439L52.4143 119.37C53.6101 114.115 48.6693 109.537 43.521 111.129L17.1732 119.276C14.5347 120.092 11.7346 118.614 10.9191 115.975L1.85294 86.6425C1.03757 84.0044 2.515 81.2048 5.15301 80.3892L31.5042 72.2417C36.6521 70.65 38.1467 64.0826 34.1946 60.4199L13.9643 41.6712C11.9391 39.7942 11.8187 36.6309 13.6955 34.6055L34.5629 12.085C36.4399 10.0593 39.6038 9.93895 41.6293 11.8162L61.8566 30.5629C65.8089 34.2259 72.2445 32.2366 73.4403 26.9822L79.5218 0.26022C80.1346 -2.43235 82.8141 -4.11835 85.5067 -3.50557L115.444 3.3078C118.137 3.92058 119.823 6.60011 119.21 9.29268L113.129 36.0146C111.933 41.2691 116.874 45.8475 122.022 44.2556L148.37 36.1087C151.008 35.2929 153.808 36.7706 154.624 39.4091L163.69 68.742C164.505 71.3801 163.028 74.1797 160.39 74.9954L134.039 83.1429Z" fill="#00E440" stroke="black" stroke-width="2"/>
</svg>
