<svg width="115" height="114" viewBox="0 0 115 114" fill="none" xmlns="http://www.w3.org/2000/svg">
<path d="M111.646 55.1142L93.2781 60.6896C89.4687 61.8459 88.346 66.689 91.2705 69.3499L105.372 82.1799C106.652 83.3441 106.72 85.3335 105.525 86.6003L90.9299 102.063C89.7582 103.305 87.8099 103.386 86.5559 102.245L72.2382 89.2173C69.3495 86.589 64.6671 88.0648 63.7821 91.8824L59.4664 110.499C59.0783 112.173 57.4041 113.227 55.7269 112.852L34.6875 108.151C33.0103 107.777 31.9653 106.116 32.3534 104.442L36.6691 85.8246C37.5541 82.007 33.9834 78.6872 30.2207 79.8294L11.5706 85.4908C9.93713 85.9867 8.21632 85.0862 7.70724 83.4691L1.3664 63.3285C0.846926 61.6785 1.78578 59.9142 3.45254 59.4083L21.8205 53.8328C25.6299 52.6765 26.7526 47.8334 23.8281 45.1726L9.72667 32.3426C8.44707 31.1783 8.37838 29.1889 9.57405 27.9221L24.1687 12.459C25.3404 11.2175 27.2887 11.1368 28.5427 12.2778L42.8604 25.3051C45.7491 27.9334 50.4315 26.4577 51.3165 22.6401L55.5771 4.26091C55.9652 2.58678 57.6394 1.5334 59.3166 1.90813L80.356 6.60891C82.0332 6.98364 83.0782 8.64458 82.6901 10.3187L78.4295 28.6979C77.5445 32.5155 81.1152 35.8352 84.8779 34.693L103.528 29.0316C105.161 28.5358 106.882 29.4363 107.391 31.0533L113.732 51.1939C114.252 52.844 113.313 54.6082 111.646 55.1142Z" fill="#00E440" stroke="black" stroke-width="2"/>
</svg>
