<svg width="135" height="121" viewBox="0 0 135 121" fill="none" xmlns="http://www.w3.org/2000/svg">
<path d="M54.2553 14.9413L72.0892 30.8615L72.5675 31.2884L73.1551 31.032L98.9477 19.7752L95.9103 41.6905L95.7825 42.6125L96.693 42.806L122.634 48.3176L101.011 63.6722L100.252 64.2111L100.735 65.0066L112.221 83.9166L84.079 83.8208L83.4378 83.8186L83.1683 84.4004L73.1174 106.091L55.2835 90.1707L54.8052 89.7438L54.2175 90.0002L28.4249 101.257L31.4623 79.3417L31.5901 78.4197L30.6796 78.2262L4.73817 72.7146L26.3617 57.36L27.1206 56.8211L26.6374 56.0256L15.1518 37.1156L43.2936 37.2114L43.9348 37.2136L44.2044 36.6318L54.2553 14.9413Z" fill="#00E440" stroke="black" stroke-width="2"/>
<path d="M42.433 60.0262L41.0054 69.6197L38.4675 70.1449L33.333 61.9093L35.8376 61.391L39.2573 67.2303L40.0954 60.5099L42.433 60.0262ZM49.3924 68.0408C48.5019 68.2251 47.678 68.1983 46.9206 67.9603C46.1721 67.7089 45.5417 67.2706 45.0292 66.6453C44.5167 66.0201 44.1649 65.2455 43.9737 64.3216C43.7894 63.4311 43.8151 62.6016 44.0508 61.8331C44.2864 61.0646 44.6979 60.4165 45.2852 59.8887C45.8701 59.3497 46.5912 58.9916 47.4483 58.8142C48.1496 58.6691 48.8117 58.6714 49.4347 58.821C50.0665 58.9573 50.6267 59.2244 51.1154 59.6224C51.604 60.0205 51.9975 60.5195 52.2958 61.1194C52.5917 61.7082 52.7589 62.3759 52.7973 63.1225L45.4673 64.6393L45.1632 63.17L50.0388 62.1611C49.8875 61.5423 49.6025 61.0905 49.1837 60.8057C48.7738 60.5075 48.2961 60.4148 47.7506 60.5277C47.3165 60.6175 46.9722 60.8048 46.7177 61.0897C46.4632 61.3745 46.2974 61.7512 46.2203 62.2199C46.152 62.6752 46.1823 63.2145 46.3113 63.8378C46.438 64.4501 46.6231 64.9516 46.8664 65.3423C47.1098 65.733 47.4104 66.0075 47.7681 66.1656C48.1259 66.3237 48.5274 66.3567 48.9726 66.2646C49.4847 66.1586 49.8823 65.9487 50.1656 65.6347C50.4489 65.3207 50.6124 64.9328 50.6561 64.471L52.9603 63.9942C52.9116 65.049 52.5775 65.9307 51.958 66.6393C51.3385 67.3479 50.4833 67.8151 49.3924 68.0408ZM56.9733 61.2484L57.9788 66.1073L55.6579 66.5876L53.8128 57.6713L55.95 57.229L56.2126 58.498C56.4544 57.9836 56.7715 57.5524 57.1637 57.2042C57.5671 56.8537 58.0638 56.6175 58.6538 56.4954C59.5554 56.3088 60.3444 56.4473 61.0208 56.911C61.6949 57.3635 62.1424 58.1241 62.3636 59.1927L63.5556 64.9533L61.2514 65.4301L60.2218 60.4543C60.0836 59.7864 59.8452 59.3076 59.5066 59.0178C59.1769 58.7146 58.7504 58.6171 58.2272 58.7254C57.9156 58.7899 57.6434 58.9332 57.4108 59.1555C57.187 59.3643 57.0306 59.6462 56.9416 60.0013C56.8614 60.3429 56.8719 60.7586 56.9733 61.2484ZM64.5495 60.0985C64.3675 59.2191 64.3654 58.3954 64.5431 57.6273C64.7319 56.8569 65.0798 56.2103 65.5869 55.6875C66.105 55.1624 66.7593 54.8181 67.5496 54.6545C68.0839 54.5439 68.5967 54.5539 69.0881 54.6844C69.5794 54.8149 70.037 55.0626 70.4607 55.4277L69.5866 51.2033L71.8908 50.7265L74.3716 62.715L72.2511 63.1539L71.985 61.8682C71.7233 62.3983 71.3796 62.8409 70.9539 63.1959C70.5393 63.5487 70.0427 63.785 69.4638 63.9048C68.6735 64.0683 67.9363 64.0119 67.2523 63.7356C66.5771 63.4458 66 62.9848 65.5209 62.3526C65.053 61.7182 64.7292 60.9668 64.5495 60.0985ZM66.9372 59.6044C67.1099 60.4393 67.4472 61.0312 67.9489 61.3801C68.4506 61.729 68.9853 61.8447 69.553 61.7272C69.9426 61.6466 70.2725 61.4738 70.5427 61.209C70.8241 60.9418 71.0202 60.5994 71.1311 60.1818C71.2397 59.753 71.2364 59.2603 71.1213 58.7038C71.0061 58.1472 70.8092 57.7004 70.5305 57.3634C70.2629 57.0241 69.9482 56.7932 69.5862 56.6708C69.2353 56.546 68.8707 56.5228 68.4922 56.6012C67.9245 56.7186 67.4797 57.0371 67.1576 57.5564C66.8333 58.0646 66.7598 58.7473 66.9372 59.6044ZM80.9193 61.5342C80.2736 61.6678 79.6484 61.6753 79.0434 61.5567C78.4496 61.4359 77.903 61.2065 77.4036 60.8688C76.9153 60.5287 76.4967 60.1046 76.1478 59.5964C75.8077 59.0747 75.5708 58.4911 75.4372 57.8455C75.3013 57.1887 75.2871 56.559 75.3946 55.9564C75.5131 55.3514 75.729 54.796 76.0422 54.2901C76.3666 53.7818 76.7773 53.3544 77.2743 53.0078C77.7825 52.6588 78.3594 52.4176 79.0051 52.284C79.6507 52.1504 80.2704 52.144 80.8642 52.2649C81.4692 52.3835 82.0158 52.6128 82.504 52.9529C83.0034 53.2907 83.422 53.7148 83.7598 54.2253C84.1088 54.7335 84.3512 55.316 84.4871 55.9727C84.6207 56.6184 84.6294 57.2492 84.5131 57.8653C84.4056 58.4679 84.1897 59.0234 83.8654 59.5316C83.5522 60.0375 83.1415 60.4649 82.6333 60.8139C82.1362 61.1605 81.5649 61.4006 80.9193 61.5342ZM80.4943 59.4805C80.8839 59.3998 81.2194 59.2259 81.5007 58.9588C81.7821 58.6916 81.9782 58.3492 82.0891 57.9316C82.2088 57.5005 82.2123 57.0123 82.0994 56.4668C81.9842 55.9103 81.7873 55.4635 81.5086 55.1265C81.2411 54.7871 80.9263 54.5563 80.5643 54.4338C80.2001 54.3003 79.8231 54.2738 79.4335 54.3544C79.055 54.4327 78.7196 54.6066 78.4271 54.8761C78.1434 55.1321 77.9406 55.4701 77.8185 55.8901C77.7076 56.3077 77.7098 56.7948 77.8249 57.3514C77.9378 57.8968 78.1292 58.3448 78.399 58.6952C78.6777 59.0322 78.9992 59.2675 79.3635 59.4011C79.7389 59.5323 80.1158 59.5588 80.4943 59.4805ZM88.8177 55.2159L89.7126 59.5404L87.3917 60.0207L85.5466 51.1044L87.6838 50.6622L88.0397 52.382C88.2562 51.7452 88.6482 51.1997 89.2159 50.7456C89.7836 50.2915 90.4237 49.9907 91.1361 49.8433L91.6336 52.2477C90.9788 52.3368 90.4124 52.4888 89.9346 52.7038C89.4655 52.9053 89.1287 53.213 88.9241 53.6267C88.7172 54.0294 88.6818 54.5591 88.8177 55.2159Z" fill="black"/>
</svg>
