<svg width="127" height="123" viewBox="0 0 127 123" fill="none" xmlns="http://www.w3.org/2000/svg">
<path d="M94.2419 32.9818L94.4027 33.1715L94.6336 33.2639L114.927 41.377L112.24 59.1512L112.191 59.4738L112.342 59.7632L121.308 76.9496L104.448 86.5151L104.164 86.6761L104.03 86.9736L96.637 103.359L75.1898 99.1552L74.9458 99.1074L74.7078 99.1794L55.0078 105.142L41.7008 89.4394L41.54 89.2497L41.3091 89.1574L21.0155 81.0443L23.703 63.2701L23.7518 62.9474L23.6008 62.6581L14.635 45.4717L31.495 35.9062L31.7788 35.7452L31.913 35.4477L39.3057 19.062L60.7529 23.2661L60.9969 23.3139L61.2349 23.2419L80.9349 17.2796L94.2419 32.9818Z" fill="#2BADE5" stroke="black" stroke-width="2"/>
<path d="M32.2708 58.152C31.4314 57.9043 30.7463 57.4947 30.2156 56.9233C29.6959 56.3552 29.3575 55.6745 29.2004 54.8815C29.0433 54.0885 29.095 53.2504 29.3556 52.3673C29.613 51.4951 30.0213 50.7741 30.5806 50.2043C31.1539 49.6269 31.8201 49.2368 32.5792 49.0341C33.3383 48.8314 34.1267 48.8507 34.9443 49.092C35.6966 49.314 36.3298 49.6786 36.8438 50.1859C37.361 50.6822 37.7236 51.281 37.9314 51.9824C38.1425 52.6728 38.1759 53.4234 38.0314 54.2341L35.6438 53.5296C35.7598 52.9356 35.6987 52.4198 35.4604 51.9821C35.2331 51.5476 34.8632 51.2548 34.3508 51.1035C33.9583 50.9877 33.5843 50.99 33.2288 51.1102C32.8842 51.2337 32.5754 51.4567 32.3025 51.7791C32.0405 52.1048 31.8323 52.5293 31.6778 53.0526C31.5266 53.565 31.4711 54.0345 31.5111 54.4612C31.562 54.891 31.6987 55.2513 31.921 55.5421C32.1575 55.8252 32.4719 56.0247 32.8644 56.1405C33.3877 56.2949 33.8557 56.2553 34.2684 56.0215C34.6952 55.78 35.0282 55.3746 35.2674 54.8051L37.655 55.5097C37.3438 56.2831 36.9106 56.9078 36.3553 57.384C35.8032 57.8492 35.1807 58.1514 34.4877 58.2907C33.7948 58.4299 33.0558 58.3837 32.2708 58.152ZM44.9056 57.7026L46.3968 52.6493L48.6536 53.3152L46.0766 62.0482L43.9997 61.4353L44.3375 60.2905C43.9959 60.6046 43.5592 60.8194 43.0273 60.935C42.4986 61.0398 41.9563 61.0101 41.4002 60.846C40.8224 60.6755 40.3399 60.4027 39.9528 60.0278C39.5657 59.6528 39.3136 59.1814 39.1968 58.6136C39.0831 58.0348 39.1372 57.3693 39.3592 56.6171L41 51.0568L43.2732 51.7276L41.7627 56.8463C41.5825 57.4568 41.5869 57.9441 41.7758 58.3079C41.9757 58.6751 42.3045 58.9262 42.7624 59.0613C43.035 59.1417 43.3121 59.1465 43.5938 59.0755C43.8864 59.0078 44.1492 58.8601 44.3823 58.6326C44.6185 58.3942 44.793 58.0842 44.9056 57.7026ZM56.8104 62.1756C56.5434 63.0805 55.9931 63.7003 55.1595 64.0351C54.3368 64.3731 53.304 64.3587 52.0611 63.9919C50.8291 63.6284 49.9463 63.0656 49.4126 62.3037C48.893 61.5341 48.7328 60.6512 48.9319 59.6552L51.107 60.297C50.986 60.7472 51.0597 61.1601 51.3281 61.5356C51.6107 61.9034 52.03 62.1694 52.586 62.3335C53.033 62.4654 53.4246 62.5039 53.7608 62.449C54.1002 62.3833 54.315 62.1977 54.4051 61.8925C54.4855 61.6199 54.454 61.3854 54.3104 61.189C54.1669 60.9926 53.8938 60.7935 53.4911 60.5917L52.008 59.834C51.2649 59.4606 50.7325 58.9954 50.411 58.4383C50.0895 57.8812 50.0284 57.2647 50.2279 56.5887C50.3888 56.0436 50.6775 55.6073 51.0941 55.2799C51.5108 54.9524 52.02 54.7531 52.6217 54.6818C53.2235 54.6105 53.8842 54.681 54.6038 54.8933C55.3342 55.1089 55.9405 55.424 56.4225 55.8389C56.9187 56.246 57.2627 56.7268 57.4547 57.2812C57.6575 57.8389 57.6945 58.4365 57.5657 59.074L55.3906 58.4322C55.4834 57.9973 55.4125 57.6149 55.178 57.285C54.9467 56.9441 54.5913 56.7029 54.1115 56.5614C53.6972 56.4391 53.3367 56.4157 53.03 56.4911C52.7375 56.5589 52.5493 56.7345 52.4657 57.0179C52.3885 57.2796 52.4233 57.5032 52.57 57.6887C52.7199 57.8633 52.9799 58.0467 53.3499 58.2389L54.9426 59.0466C55.7448 59.4611 56.3005 59.9273 56.6099 60.4453C56.9302 60.9665 56.997 61.5432 56.8104 62.1756ZM63.933 64.9174L63.3491 66.8962C63.0347 66.9575 62.7278 66.9736 62.4282 66.9445C62.1363 66.9294 61.8214 66.8721 61.4834 66.7723C60.8947 66.5986 60.409 66.3368 60.0263 65.9868C59.6578 65.6292 59.4196 65.1914 59.3116 64.6737C59.2069 64.145 59.2494 63.559 59.4392 62.9158L60.6071 58.9581L58.8409 58.437L59.4151 56.4909L61.1814 57.012L61.9438 54.4281L64.2007 55.0941L63.4382 57.678L65.9403 58.4164L65.366 60.3625L62.8639 59.6241L61.8505 63.0584C61.7025 63.5599 61.7037 63.9573 61.8542 64.2506C62.0188 64.5362 62.3028 64.7386 62.7062 64.8576C62.9243 64.9219 63.1379 64.9613 63.347 64.9756C63.5593 64.979 63.7547 64.9596 63.933 64.9174ZM68.8616 68.9495C68.2292 68.7629 67.6743 68.4747 67.1967 68.0849C66.73 67.6983 66.3561 67.2383 66.075 66.705C65.8047 66.1749 65.6356 65.6035 65.5675 64.9908C65.5135 64.3704 65.5798 63.7441 65.7664 63.1117C65.9562 62.4685 66.2406 61.9065 66.6195 61.4257C67.0093 60.9481 67.4616 60.5601 67.9764 60.2616C68.502 59.9664 69.0657 59.7831 69.6675 59.7118C70.2802 59.6437 70.9027 59.7029 71.5351 59.8895C72.1674 60.0761 72.7169 60.3627 73.1836 60.7493C73.6611 61.1391 74.035 61.5991 74.3053 62.1292C74.5864 62.6625 74.7556 63.2339 74.8128 63.8434C74.8809 64.4561 74.82 65.0841 74.6302 65.7273C74.4436 66.3597 74.1538 66.9201 73.7607 67.4085C73.3818 67.8893 72.9295 68.2773 72.4039 68.5726C71.8892 68.8711 71.3254 69.0544 70.7128 69.1225C70.111 69.1938 69.4939 69.1361 68.8616 68.9495ZM69.4551 66.938C69.8367 67.0506 70.2146 67.0554 70.5886 66.9525C70.9627 66.8495 71.2971 66.6401 71.5919 66.3241C71.9007 66.0004 72.1339 65.5715 72.2916 65.0372C72.4525 64.4921 72.4895 64.0052 72.4026 63.5766C72.3266 63.1513 72.1579 62.7993 71.8964 62.5206C71.6382 62.2311 71.3182 62.03 70.9367 61.9174C70.566 61.808 70.1881 61.8032 69.8031 61.9029C69.4323 61.995 69.094 62.1974 68.7884 62.5101C68.4937 62.8261 68.2659 63.2567 68.105 63.8018C67.9474 64.336 67.9049 64.8213 67.9777 65.2576C68.0645 65.6862 68.2371 66.0452 68.4954 66.3348C68.7645 66.6276 69.0844 66.8286 69.4551 66.938ZM77.5561 71.3374L75.2829 70.6666L77.8599 61.9337L79.9532 62.5514L79.5864 63.7943C80.0345 63.4406 80.5066 63.2065 81.0025 63.0922C81.5017 62.9669 82.0402 62.9895 82.6181 63.16C83.2177 63.3369 83.6954 63.626 84.051 64.0273C84.4208 64.4209 84.6408 64.9006 84.7108 65.4664C85.2013 65.0897 85.7156 64.8326 86.254 64.6951C86.7955 64.5468 87.3934 64.5691 88.0475 64.7622C88.9306 65.0228 89.5611 65.517 89.9389 66.2447C90.32 66.9616 90.3561 67.8434 90.0472 68.89L88.3823 74.5321L86.1255 73.8661L87.5781 68.9436C87.7615 68.3222 87.7722 67.8039 87.6103 67.3887C87.4624 66.9658 87.1378 66.6804 86.6363 66.5324C86.3419 66.4455 86.0452 66.4469 85.7462 66.5364C85.4504 66.615 85.1827 66.779 84.9432 67.0284C84.7146 67.2809 84.536 67.6252 84.4073 68.0613L82.9692 72.9348L80.7124 72.2688L82.165 67.3463C82.3483 66.7249 82.3591 66.2065 82.1971 65.7913C82.0493 65.3685 81.7247 65.083 81.2232 64.935C80.9179 64.845 80.6157 64.8447 80.3167 64.9342C80.0209 65.0129 79.7587 65.1785 79.5301 65.431C79.3015 65.6836 79.1229 66.0279 78.9942 66.464L77.5561 71.3374ZM94.5684 76.5175C93.6962 76.2602 92.9823 75.848 92.4266 75.2811C91.8851 74.7065 91.5357 74.0226 91.3786 73.2296C91.2215 72.4366 91.2765 71.5876 91.5435 70.6827C91.8009 69.8105 92.2147 69.0911 92.7848 68.5245C93.355 67.958 94.0234 67.5804 94.7902 67.3918C95.5602 67.1924 96.3649 67.2165 97.2044 67.4642C97.8912 67.6669 98.4741 67.9811 98.9529 68.4069C99.4458 68.8249 99.8139 69.3247 100.057 69.9061C100.3 70.4875 100.412 71.113 100.392 71.7827C100.376 72.4415 100.208 73.1092 99.8901 73.7857L92.7108 71.6671L93.1355 70.228L97.9108 71.6372C98.0691 71.0202 98.0308 70.4874 97.7958 70.0388C97.5749 69.5825 97.1973 69.2755 96.6631 69.1179C96.2379 68.9924 95.8459 68.9952 95.4872 69.1264C95.1285 69.2576 94.8046 69.5117 94.5156 69.8886C94.2407 70.2579 94.0132 70.7478 93.8331 71.3583C93.6561 71.9579 93.5828 72.4874 93.6132 72.9468C93.6436 73.4061 93.7792 73.7898 94.0202 74.098C94.2611 74.4061 94.5996 74.6245 95.0357 74.7532C95.5372 74.9012 95.9869 74.9035 96.3848 74.7602C96.7826 74.6168 97.1097 74.3519 97.366 73.9653L99.6228 74.6313C99.0825 75.5385 98.3722 76.1585 97.4917 76.4913C96.6113 76.8241 95.6369 76.8328 94.5684 76.5175ZM104.302 74.6253L103.052 78.861L100.779 78.1902L103.356 69.4573L105.449 70.075L104.952 71.7594C105.443 71.2999 106.046 71.0037 106.761 70.8709C107.476 70.7381 108.182 70.7747 108.88 70.9806L108.185 73.3356C107.565 73.1053 106.994 72.9724 106.471 72.9366C105.963 72.8932 105.521 73.0057 105.145 73.2741C104.773 73.5317 104.492 73.9821 104.302 74.6253Z" fill="black"/>
</svg>
