<svg width="74" height="74" viewBox="0 0 74 74" fill="none" xmlns="http://www.w3.org/2000/svg">
<path d="M41.1615 8.63932L41.6996 9.28242L42.4266 8.86472L47.0132 6.22971C53.2314 2.65725 60.8978 7.5605 60.2626 14.7037L59.7941 19.9725L59.7198 20.8077L60.5293 21.0265L65.6357 22.4064C72.5588 24.2773 74.5126 33.1654 69.0124 37.7672L64.9555 41.1615L64.3124 41.6996L64.7301 42.4266L67.3652 47.0132C70.9376 53.2314 66.0344 60.8978 58.8911 60.2626L53.6223 59.7941L52.7871 59.7198L52.5684 60.5293L51.1885 65.6357C49.3176 72.5588 40.4295 74.5126 35.8276 69.0124L32.4333 64.9555L31.8953 64.3124L31.1682 64.7301L26.5817 67.3652C20.3634 70.9376 12.697 66.0344 13.3322 58.8911L13.8008 53.6223L13.875 52.7871L13.0656 52.5684L7.95918 51.1885C1.03609 49.3176 -0.91777 40.4295 4.58244 35.8276L8.63932 32.4333L9.28242 31.8953L8.86472 31.1682L6.22971 26.5817C2.65725 20.3634 7.5605 12.697 14.7037 13.3322L19.9725 13.8008L20.8077 13.875L21.0265 13.0656L22.4064 7.95918C24.2773 1.03609 33.1654 -0.917768 37.7672 4.58244L41.1615 8.63932Z" fill="#EF8421" stroke="black" stroke-width="2"/>
</svg>
