<svg width="1937" height="175" viewBox="0 0 1937 175" fill="none" xmlns="http://www.w3.org/2000/svg">
<mask id="path-1-inside-1_144_6139" fill="white">
<path d="M1070.35 87.529C1070.35 76.1246 1072.41 64.8319 1076.4 54.2957C1080.39 43.7594 1086.23 34.1859 1093.6 26.1218C1100.98 18.0577 1109.73 11.6609 1119.36 7.29667C1128.99 2.93241 1139.31 0.686157 1149.74 0.686157C1160.16 0.686158 1170.49 2.93241 1180.12 7.29668C1189.75 11.6609 1198.5 18.0577 1205.87 26.1218C1213.24 34.1859 1219.09 43.7594 1223.08 54.2957C1227.07 64.8319 1229.12 76.1246 1229.12 87.529L1149.74 87.529L1070.35 87.529Z"/>
</mask>
<path d="M1070.35 87.529C1070.35 76.1246 1072.41 64.8319 1076.4 54.2957C1080.39 43.7594 1086.23 34.1859 1093.6 26.1218C1100.98 18.0577 1109.73 11.6609 1119.36 7.29667C1128.99 2.93241 1139.31 0.686157 1149.74 0.686157C1160.16 0.686158 1170.49 2.93241 1180.12 7.29668C1189.75 11.6609 1198.5 18.0577 1205.87 26.1218C1213.24 34.1859 1219.09 43.7594 1223.08 54.2957C1227.07 64.8319 1229.12 76.1246 1229.12 87.529L1149.74 87.529L1070.35 87.529Z" fill="white" stroke="black" stroke-width="4" mask="url(#path-1-inside-1_144_6139)"/>
<mask id="path-2-inside-2_144_6139" fill="white">
<path d="M1778.23 86.8428C1778.23 75.4385 1780.28 64.1458 1784.27 53.6095C1788.26 43.0733 1794.11 33.4998 1801.48 25.4357C1808.85 17.3716 1817.6 10.9748 1827.24 6.61052C1836.87 2.24626 1847.19 -4.98501e-07 1857.62 0C1868.04 4.98501e-07 1878.36 2.24626 1887.99 6.61052C1897.63 10.9748 1906.38 17.3716 1913.75 25.4357C1921.12 33.4998 1926.97 43.0733 1930.96 53.6095C1934.95 64.1458 1937 75.4385 1937 86.8428L1857.62 86.8428H1778.23Z"/>
</mask>
<path d="M1778.23 86.8428C1778.23 75.4385 1780.28 64.1458 1784.27 53.6095C1788.26 43.0733 1794.11 33.4998 1801.48 25.4357C1808.85 17.3716 1817.6 10.9748 1827.24 6.61052C1836.87 2.24626 1847.19 -4.98501e-07 1857.62 0C1868.04 4.98501e-07 1878.36 2.24626 1887.99 6.61052C1897.63 10.9748 1906.38 17.3716 1913.75 25.4357C1921.12 33.4998 1926.97 43.0733 1930.96 53.6095C1934.95 64.1458 1937 75.4385 1937 86.8428L1857.62 86.8428H1778.23Z" fill="white" stroke="black" stroke-width="4" mask="url(#path-2-inside-2_144_6139)"/>
<mask id="path-3-inside-3_144_6139" fill="white">
<path d="M887.293 87.5289C887.293 76.1245 889.685 64.8318 894.331 54.2956C898.978 43.7593 905.788 34.1858 914.374 26.1217C922.96 18.0576 933.152 11.6608 944.37 7.29655C955.588 2.93229 967.611 0.686035 979.753 0.686035C991.895 0.686036 1003.92 2.93229 1015.14 7.29655C1026.35 11.6608 1036.55 18.0576 1045.13 26.1217C1053.72 34.1858 1060.53 43.7593 1065.17 54.2956C1069.82 64.8318 1072.21 76.1245 1072.21 87.5289L979.753 87.5289L887.293 87.5289Z"/>
</mask>
<path d="M887.293 87.5289C887.293 76.1245 889.685 64.8318 894.331 54.2956C898.978 43.7593 905.788 34.1858 914.374 26.1217C922.96 18.0576 933.152 11.6608 944.37 7.29655C955.588 2.93229 967.611 0.686035 979.753 0.686035C991.895 0.686036 1003.92 2.93229 1015.14 7.29655C1026.35 11.6608 1036.55 18.0576 1045.13 26.1217C1053.72 34.1858 1060.53 43.7593 1065.17 54.2956C1069.82 64.8318 1072.21 76.1245 1072.21 87.5289L979.753 87.5289L887.293 87.5289Z" fill="white" stroke="black" stroke-width="4" mask="url(#path-3-inside-3_144_6139)"/>
<mask id="path-4-inside-4_144_6139" fill="white">
<path d="M1595.17 86.8428C1595.17 75.4385 1597.56 64.1458 1602.21 53.6095C1606.85 43.0733 1613.66 33.4998 1622.25 25.4357C1630.84 17.3716 1641.03 10.9748 1652.25 6.61052C1663.46 2.24626 1675.49 -4.98501e-07 1687.63 0C1699.77 4.98501e-07 1711.79 2.24626 1723.01 6.61052C1734.23 10.9748 1744.42 17.3716 1753.01 25.4357C1761.59 33.4998 1768.4 43.0733 1773.05 53.6095C1777.7 64.1458 1780.09 75.4385 1780.09 86.8428L1687.63 86.8428L1595.17 86.8428Z"/>
</mask>
<path d="M1595.17 86.8428C1595.17 75.4385 1597.56 64.1458 1602.21 53.6095C1606.85 43.0733 1613.66 33.4998 1622.25 25.4357C1630.84 17.3716 1641.03 10.9748 1652.25 6.61052C1663.46 2.24626 1675.49 -4.98501e-07 1687.63 0C1699.77 4.98501e-07 1711.79 2.24626 1723.01 6.61052C1734.23 10.9748 1744.42 17.3716 1753.01 25.4357C1761.59 33.4998 1768.4 43.0733 1773.05 53.6095C1777.7 64.1458 1780.09 75.4385 1780.09 86.8428L1687.63 86.8428L1595.17 86.8428Z" fill="white" stroke="black" stroke-width="4" mask="url(#path-4-inside-4_144_6139)"/>
<mask id="path-5-inside-5_144_6139" fill="white">
<path d="M704.231 87.529C704.231 76.1246 706.622 64.8319 711.269 54.2957C715.915 43.7594 722.726 34.1859 731.311 26.1218C739.897 18.0577 750.09 11.6609 761.308 7.29667C772.525 2.93241 784.548 0.686157 796.69 0.686157C808.832 0.686158 820.856 2.93241 832.073 7.29668C843.291 11.6609 853.484 18.0577 862.07 26.1218C870.655 34.1859 877.466 43.7594 882.112 54.2957C886.759 64.8319 889.15 76.1246 889.15 87.529L796.69 87.529L704.231 87.529Z"/>
</mask>
<path d="M704.231 87.529C704.231 76.1246 706.622 64.8319 711.269 54.2957C715.915 43.7594 722.726 34.1859 731.311 26.1218C739.897 18.0577 750.09 11.6609 761.308 7.29667C772.525 2.93241 784.548 0.686157 796.69 0.686157C808.832 0.686158 820.856 2.93241 832.073 7.29668C843.291 11.6609 853.484 18.0577 862.07 26.1218C870.655 34.1859 877.466 43.7594 882.112 54.2957C886.759 64.8319 889.15 76.1246 889.15 87.529L796.69 87.529L704.231 87.529Z" fill="white" stroke="black" stroke-width="4" mask="url(#path-5-inside-5_144_6139)"/>
<mask id="path-6-inside-6_144_6139" fill="white">
<path d="M1412.11 86.8428C1412.11 75.4385 1414.5 64.1458 1419.15 53.6095C1423.79 43.0733 1430.6 33.4998 1439.19 25.4357C1447.77 17.3716 1457.97 10.9748 1469.18 6.61052C1480.4 2.24626 1492.43 -4.98501e-07 1504.57 0C1516.71 4.98501e-07 1528.73 2.24626 1539.95 6.61052C1551.17 10.9748 1561.36 17.3716 1569.95 25.4357C1578.53 33.4998 1585.34 43.0733 1589.99 53.6095C1594.64 64.1458 1597.03 75.4385 1597.03 86.8428L1504.57 86.8428L1412.11 86.8428Z"/>
</mask>
<path d="M1412.11 86.8428C1412.11 75.4385 1414.5 64.1458 1419.15 53.6095C1423.79 43.0733 1430.6 33.4998 1439.19 25.4357C1447.77 17.3716 1457.97 10.9748 1469.18 6.61052C1480.4 2.24626 1492.43 -4.98501e-07 1504.57 0C1516.71 4.98501e-07 1528.73 2.24626 1539.95 6.61052C1551.17 10.9748 1561.36 17.3716 1569.95 25.4357C1578.53 33.4998 1585.34 43.0733 1589.99 53.6095C1594.64 64.1458 1597.03 75.4385 1597.03 86.8428L1504.57 86.8428L1412.11 86.8428Z" fill="white" stroke="black" stroke-width="4" mask="url(#path-6-inside-6_144_6139)"/>
<mask id="path-7-inside-7_144_6139" fill="white">
<path d="M521.169 87.529C521.169 76.1246 523.561 64.8319 528.207 54.2957C532.854 43.7594 539.664 34.1859 548.25 26.1218C556.836 18.0577 567.028 11.6609 578.246 7.29667C589.464 2.93241 601.487 0.686157 613.629 0.686157C625.771 0.686158 637.794 2.93241 649.012 7.29668C660.23 11.6609 670.422 18.0577 679.008 26.1218C687.594 34.1859 694.404 43.7594 699.051 54.2957C703.697 64.8319 706.089 76.1246 706.089 87.529L613.629 87.529L521.169 87.529Z"/>
</mask>
<path d="M521.169 87.529C521.169 76.1246 523.561 64.8319 528.207 54.2957C532.854 43.7594 539.664 34.1859 548.25 26.1218C556.836 18.0577 567.028 11.6609 578.246 7.29667C589.464 2.93241 601.487 0.686157 613.629 0.686157C625.771 0.686158 637.794 2.93241 649.012 7.29668C660.23 11.6609 670.422 18.0577 679.008 26.1218C687.594 34.1859 694.404 43.7594 699.051 54.2957C703.697 64.8319 706.089 76.1246 706.089 87.529L613.629 87.529L521.169 87.529Z" fill="white" stroke="black" stroke-width="4" mask="url(#path-7-inside-7_144_6139)"/>
<mask id="path-8-inside-8_144_6139" fill="white">
<path d="M1229.05 86.8428C1229.05 75.4385 1231.44 64.1458 1236.08 53.6095C1240.73 43.0733 1247.54 33.4998 1256.13 25.4357C1264.71 17.3716 1274.91 10.9748 1286.12 6.61052C1297.34 2.24626 1309.36 -4.98501e-07 1321.51 0C1333.65 4.98501e-07 1345.67 2.24626 1356.89 6.61052C1368.11 10.9748 1378.3 17.3716 1386.88 25.4357C1395.47 33.4998 1402.28 43.0733 1406.93 53.6095C1411.57 64.1458 1413.97 75.4385 1413.97 86.8428L1321.51 86.8428L1229.05 86.8428Z"/>
</mask>
<path d="M1229.05 86.8428C1229.05 75.4385 1231.44 64.1458 1236.08 53.6095C1240.73 43.0733 1247.54 33.4998 1256.13 25.4357C1264.71 17.3716 1274.91 10.9748 1286.12 6.61052C1297.34 2.24626 1309.36 -4.98501e-07 1321.51 0C1333.65 4.98501e-07 1345.67 2.24626 1356.89 6.61052C1368.11 10.9748 1378.3 17.3716 1386.88 25.4357C1395.47 33.4998 1402.28 43.0733 1406.93 53.6095C1411.57 64.1458 1413.97 75.4385 1413.97 86.8428L1321.51 86.8428L1229.05 86.8428Z" fill="white" stroke="black" stroke-width="4" mask="url(#path-8-inside-8_144_6139)"/>
<mask id="path-9-inside-9_144_6139" fill="white">
<path d="M338.108 87.5284C338.108 76.124 340.499 64.8313 345.146 54.2951C349.792 43.7588 356.603 34.1853 365.188 26.1212C373.774 18.0571 383.967 11.6603 395.185 7.29606C406.402 2.9318 418.425 0.685546 430.567 0.685547C442.709 0.685547 454.733 2.9318 465.95 7.29607C477.168 11.6603 487.361 18.0571 495.946 26.1212C504.532 34.1853 511.343 43.7588 515.989 54.2951C520.636 64.8313 523.027 76.124 523.027 87.5284L430.567 87.5284L338.108 87.5284Z"/>
</mask>
<path d="M338.108 87.5284C338.108 76.124 340.499 64.8313 345.146 54.2951C349.792 43.7588 356.603 34.1853 365.188 26.1212C373.774 18.0571 383.967 11.6603 395.185 7.29606C406.402 2.9318 418.425 0.685546 430.567 0.685547C442.709 0.685547 454.733 2.9318 465.95 7.29607C477.168 11.6603 487.361 18.0571 495.946 26.1212C504.532 34.1853 511.343 43.7588 515.989 54.2951C520.636 64.8313 523.027 76.124 523.027 87.5284L430.567 87.5284L338.108 87.5284Z" fill="white" stroke="black" stroke-width="4" mask="url(#path-9-inside-9_144_6139)"/>
<mask id="path-10-inside-10_144_6139" fill="white">
<path d="M155.045 87.5284C155.045 76.124 157.437 64.8313 162.083 54.2951C166.73 43.7588 173.54 34.1853 182.126 26.1212C190.712 18.0571 200.904 11.6603 212.122 7.29606C223.34 2.9318 235.363 0.685546 247.505 0.685547C259.647 0.685547 271.67 2.9318 282.888 7.29607C294.106 11.6603 304.298 18.0571 312.884 26.1212C321.47 34.1853 328.28 43.7588 332.927 54.2951C337.573 64.8313 339.965 76.124 339.965 87.5284L247.505 87.5284L155.045 87.5284Z"/>
</mask>
<path d="M155.045 87.5284C155.045 76.124 157.437 64.8313 162.083 54.2951C166.73 43.7588 173.54 34.1853 182.126 26.1212C190.712 18.0571 200.904 11.6603 212.122 7.29606C223.34 2.9318 235.363 0.685546 247.505 0.685547C259.647 0.685547 271.67 2.9318 282.888 7.29607C294.106 11.6603 304.298 18.0571 312.884 26.1212C321.47 34.1853 328.28 43.7588 332.927 54.2951C337.573 64.8313 339.965 76.124 339.965 87.5284L247.505 87.5284L155.045 87.5284Z" fill="white" stroke="black" stroke-width="4" mask="url(#path-10-inside-10_144_6139)"/>
<mask id="path-11-inside-11_144_6139" fill="white">
<path d="M0.00166321 87.5289C0.00166321 76.1245 2.03085 64.8318 5.97338 54.2956C9.9159 43.7593 15.6945 34.1858 22.9794 26.1217C30.2642 18.0576 38.9126 11.6608 48.4307 7.29655C57.9488 2.93229 68.1502 0.686035 78.4525 0.686035C88.7548 0.686036 98.9562 2.93229 108.474 7.29655C117.992 11.6608 126.641 18.0576 133.926 26.1217C141.21 34.1858 146.989 43.7593 150.932 54.2956C154.874 64.8318 156.903 76.1245 156.903 87.5289L78.4525 87.5289L0.00166321 87.5289Z"/>
</mask>
<path d="M0.00166321 87.5289C0.00166321 76.1245 2.03085 64.8318 5.97338 54.2956C9.9159 43.7593 15.6945 34.1858 22.9794 26.1217C30.2642 18.0576 38.9126 11.6608 48.4307 7.29655C57.9488 2.93229 68.1502 0.686035 78.4525 0.686035C88.7548 0.686036 98.9562 2.93229 108.474 7.29655C117.992 11.6608 126.641 18.0576 133.926 26.1217C141.21 34.1858 146.989 43.7593 150.932 54.2956C154.874 64.8318 156.903 76.1245 156.903 87.5289L78.4525 87.5289L0.00166321 87.5289Z" fill="white" stroke="black" stroke-width="4" mask="url(#path-11-inside-11_144_6139)"/>
<path d="M1937 155L3.10775e-05 155V84.0027L1937 84V155Z" fill="white"/>
</svg>
