<svg width="1938" height="175" viewBox="0 0 1938 175" fill="none" xmlns="http://www.w3.org/2000/svg">
<mask id="path-1-inside-1_157_6429" fill="white">
<path d="M866.646 86.8428C866.646 98.2472 864.593 109.54 860.604 120.076C856.614 130.612 850.767 140.186 843.395 148.25C836.024 156.314 827.272 162.711 817.641 167.075C808.01 171.439 797.687 173.686 787.262 173.686C776.837 173.686 766.514 171.439 756.882 167.075C747.251 162.711 738.5 156.314 731.128 148.25C723.757 140.186 717.909 130.612 713.92 120.076C709.93 109.54 707.877 98.2472 707.877 86.8428L787.262 86.8428H866.646Z"/>
</mask>
<path d="M866.646 86.8428C866.646 98.2472 864.593 109.54 860.604 120.076C856.614 130.612 850.767 140.186 843.395 148.25C836.024 156.314 827.272 162.711 817.641 167.075C808.01 171.439 797.687 173.686 787.262 173.686C776.837 173.686 766.514 171.439 756.882 167.075C747.251 162.711 738.5 156.314 731.128 148.25C723.757 140.186 717.909 130.612 713.92 120.076C709.93 109.54 707.877 98.2472 707.877 86.8428L787.262 86.8428H866.646Z" fill="#FFF9E5" stroke="black" stroke-width="4" mask="url(#path-1-inside-1_157_6429)"/>
<mask id="path-2-inside-2_157_6429" fill="white">
<path d="M158.77 87.529C158.77 98.9334 156.716 110.226 152.727 120.762C148.737 131.299 142.89 140.872 135.518 148.936C128.147 157 119.395 163.397 109.764 167.761C100.133 172.126 89.8097 174.372 79.3848 174.372C68.9598 174.372 58.6369 172.126 49.0055 167.761C39.3741 163.397 30.6228 157 23.2513 148.936C15.8797 140.872 10.0323 131.299 6.0428 120.762C2.05335 110.226 -9.11378e-07 98.9333 0 87.529L79.3848 87.529H158.77Z"/>
</mask>
<path d="M158.77 87.529C158.77 98.9334 156.716 110.226 152.727 120.762C148.737 131.299 142.89 140.872 135.518 148.936C128.147 157 119.395 163.397 109.764 167.761C100.133 172.126 89.8097 174.372 79.3848 174.372C68.9598 174.372 58.6369 172.126 49.0055 167.761C39.3741 163.397 30.6228 157 23.2513 148.936C15.8797 140.872 10.0323 131.299 6.0428 120.762C2.05335 110.226 -9.11378e-07 98.9333 0 87.529L79.3848 87.529H158.77Z" fill="#FFF9E5" stroke="black" stroke-width="4" mask="url(#path-2-inside-2_157_6429)"/>
<mask id="path-3-inside-3_157_6429" fill="white">
<path d="M1049.71 86.8431C1049.71 98.2474 1047.32 109.54 1042.67 120.076C1038.02 130.613 1031.21 140.186 1022.63 148.25C1014.04 156.314 1003.85 162.711 992.63 167.075C981.412 171.44 969.389 173.686 957.247 173.686C945.105 173.686 933.082 171.44 921.864 167.075C910.646 162.711 900.454 156.314 891.868 148.25C883.282 140.186 876.472 130.613 871.825 120.076C867.179 109.54 864.787 98.2474 864.787 86.8431L957.247 86.8431L1049.71 86.8431Z"/>
</mask>
<path d="M1049.71 86.8431C1049.71 98.2474 1047.32 109.54 1042.67 120.076C1038.02 130.613 1031.21 140.186 1022.63 148.25C1014.04 156.314 1003.85 162.711 992.63 167.075C981.412 171.44 969.389 173.686 957.247 173.686C945.105 173.686 933.082 171.44 921.864 167.075C910.646 162.711 900.454 156.314 891.868 148.25C883.282 140.186 876.472 130.613 871.825 120.076C867.179 109.54 864.787 98.2474 864.787 86.8431L957.247 86.8431L1049.71 86.8431Z" fill="#FFF9E5" stroke="black" stroke-width="4" mask="url(#path-3-inside-3_157_6429)"/>
<mask id="path-4-inside-4_157_6429" fill="white">
<path d="M341.831 87.529C341.831 98.9334 339.439 110.226 334.793 120.762C330.146 131.299 323.336 140.872 314.75 148.936C306.164 157 295.972 163.397 284.754 167.761C273.536 172.126 261.513 174.372 249.371 174.372C237.229 174.372 225.206 172.126 213.988 167.761C202.77 163.397 192.578 157 183.992 148.936C175.406 140.872 168.596 131.299 163.949 120.762C159.303 110.226 156.911 98.9333 156.911 87.529L249.371 87.529L341.831 87.529Z"/>
</mask>
<path d="M341.831 87.529C341.831 98.9334 339.439 110.226 334.793 120.762C330.146 131.299 323.336 140.872 314.75 148.936C306.164 157 295.972 163.397 284.754 167.761C273.536 172.126 261.513 174.372 249.371 174.372C237.229 174.372 225.206 172.126 213.988 167.761C202.77 163.397 192.578 157 183.992 148.936C175.406 140.872 168.596 131.299 163.949 120.762C159.303 110.226 156.911 98.9333 156.911 87.529L249.371 87.529L341.831 87.529Z" fill="#FFF9E5" stroke="black" stroke-width="4" mask="url(#path-4-inside-4_157_6429)"/>
<mask id="path-5-inside-5_157_6429" fill="white">
<path d="M1232.77 86.8428C1232.77 98.2472 1230.38 109.54 1225.73 120.076C1221.08 130.612 1214.27 140.186 1205.69 148.25C1197.1 156.314 1186.91 162.711 1175.69 167.075C1164.47 171.439 1152.45 173.686 1140.31 173.686C1128.17 173.686 1116.14 171.439 1104.93 167.075C1093.71 162.711 1083.52 156.314 1074.93 148.25C1066.34 140.186 1059.53 130.612 1054.89 120.076C1050.24 109.54 1047.85 98.2472 1047.85 86.8428L1140.31 86.8428L1232.77 86.8428Z"/>
</mask>
<path d="M1232.77 86.8428C1232.77 98.2472 1230.38 109.54 1225.73 120.076C1221.08 130.612 1214.27 140.186 1205.69 148.25C1197.1 156.314 1186.91 162.711 1175.69 167.075C1164.47 171.439 1152.45 173.686 1140.31 173.686C1128.17 173.686 1116.14 171.439 1104.93 167.075C1093.71 162.711 1083.52 156.314 1074.93 148.25C1066.34 140.186 1059.53 130.612 1054.89 120.076C1050.24 109.54 1047.85 98.2472 1047.85 86.8428L1140.31 86.8428L1232.77 86.8428Z" fill="#FFF9E5" stroke="black" stroke-width="4" mask="url(#path-5-inside-5_157_6429)"/>
<mask id="path-6-inside-6_157_6429" fill="white">
<path d="M524.892 87.529C524.892 98.9334 522.501 110.226 517.854 120.762C513.208 131.299 506.397 140.872 497.812 148.936C489.226 157 479.033 163.397 467.815 167.761C456.598 172.126 444.575 174.372 432.433 174.372C420.291 174.372 408.267 172.126 397.05 167.761C385.832 163.397 375.639 157 367.054 148.936C358.468 140.872 351.657 131.299 347.011 120.762C342.364 110.226 339.973 98.9333 339.973 87.529L432.433 87.529L524.892 87.529Z"/>
</mask>
<path d="M524.892 87.529C524.892 98.9334 522.501 110.226 517.854 120.762C513.208 131.299 506.397 140.872 497.812 148.936C489.226 157 479.033 163.397 467.815 167.761C456.598 172.126 444.575 174.372 432.433 174.372C420.291 174.372 408.267 172.126 397.05 167.761C385.832 163.397 375.639 157 367.054 148.936C358.468 140.872 351.657 131.299 347.011 120.762C342.364 110.226 339.973 98.9333 339.973 87.529L432.433 87.529L524.892 87.529Z" fill="#FFF9E5" stroke="black" stroke-width="4" mask="url(#path-6-inside-6_157_6429)"/>
<mask id="path-7-inside-7_157_6429" fill="white">
<path d="M1415.83 86.8428C1415.83 98.2472 1413.44 109.54 1408.79 120.076C1404.15 130.612 1397.34 140.186 1388.75 148.25C1380.16 156.314 1369.97 162.711 1358.75 167.075C1347.54 171.439 1335.51 173.686 1323.37 173.686C1311.23 173.686 1299.21 171.439 1287.99 167.075C1276.77 162.711 1266.58 156.314 1257.99 148.25C1249.41 140.186 1242.6 130.612 1237.95 120.076C1233.3 109.54 1230.91 98.2472 1230.91 86.8428L1323.37 86.8428L1415.83 86.8428Z"/>
</mask>
<path d="M1415.83 86.8428C1415.83 98.2472 1413.44 109.54 1408.79 120.076C1404.15 130.612 1397.34 140.186 1388.75 148.25C1380.16 156.314 1369.97 162.711 1358.75 167.075C1347.54 171.439 1335.51 173.686 1323.37 173.686C1311.23 173.686 1299.21 171.439 1287.99 167.075C1276.77 162.711 1266.58 156.314 1257.99 148.25C1249.41 140.186 1242.6 130.612 1237.95 120.076C1233.3 109.54 1230.91 98.2472 1230.91 86.8428L1323.37 86.8428L1415.83 86.8428Z" fill="#FFF9E5" stroke="black" stroke-width="4" mask="url(#path-7-inside-7_157_6429)"/>
<mask id="path-8-inside-8_157_6429" fill="white">
<path d="M707.954 87.529C707.954 98.9334 705.562 110.226 700.916 120.762C696.269 131.299 689.459 140.872 680.873 148.936C672.287 157 662.095 163.397 650.877 167.761C639.659 172.126 627.636 174.372 615.494 174.372C603.352 174.372 591.329 172.126 580.111 167.761C568.893 163.397 558.701 157 550.115 148.936C541.529 140.872 534.719 131.299 530.072 120.762C525.426 110.226 523.034 98.9333 523.034 87.529L615.494 87.529L707.954 87.529Z"/>
</mask>
<path d="M707.954 87.529C707.954 98.9334 705.562 110.226 700.916 120.762C696.269 131.299 689.459 140.872 680.873 148.936C672.287 157 662.095 163.397 650.877 167.761C639.659 172.126 627.636 174.372 615.494 174.372C603.352 174.372 591.329 172.126 580.111 167.761C568.893 163.397 558.701 157 550.115 148.936C541.529 140.872 534.719 131.299 530.072 120.762C525.426 110.226 523.034 98.9333 523.034 87.529L615.494 87.529L707.954 87.529Z" fill="#FFF9E5" stroke="black" stroke-width="4" mask="url(#path-8-inside-8_157_6429)"/>
<mask id="path-9-inside-9_157_6429" fill="white">
<path d="M1598.89 86.8434C1598.89 98.2478 1596.5 109.541 1591.85 120.077C1587.21 130.613 1580.4 140.187 1571.81 148.251C1563.23 156.315 1553.03 162.712 1541.82 167.076C1530.6 171.44 1518.57 173.686 1506.43 173.686C1494.29 173.686 1482.27 171.44 1471.05 167.076C1459.83 162.711 1449.64 156.315 1441.05 148.251C1432.47 140.186 1425.66 130.613 1421.01 120.077C1416.36 109.54 1413.97 98.2478 1413.97 86.8434L1506.43 86.8434L1598.89 86.8434Z"/>
</mask>
<path d="M1598.89 86.8434C1598.89 98.2478 1596.5 109.541 1591.85 120.077C1587.21 130.613 1580.4 140.187 1571.81 148.251C1563.23 156.315 1553.03 162.712 1541.82 167.076C1530.6 171.44 1518.57 173.686 1506.43 173.686C1494.29 173.686 1482.27 171.44 1471.05 167.076C1459.83 162.711 1449.64 156.315 1441.05 148.251C1432.47 140.186 1425.66 130.613 1421.01 120.077C1416.36 109.54 1413.97 98.2478 1413.97 86.8434L1506.43 86.8434L1598.89 86.8434Z" fill="#FFF9E5" stroke="black" stroke-width="4" mask="url(#path-9-inside-9_157_6429)"/>
<mask id="path-10-inside-10_157_6429" fill="white">
<path d="M1781.95 86.8434C1781.95 98.2478 1779.56 109.541 1774.92 120.077C1770.27 130.613 1763.46 140.187 1754.87 148.251C1746.29 156.315 1736.1 162.712 1724.88 167.076C1713.66 171.44 1701.64 173.686 1689.5 173.686C1677.35 173.686 1665.33 171.44 1654.11 167.076C1642.89 162.711 1632.7 156.315 1624.12 148.251C1615.53 140.186 1608.72 130.613 1604.07 120.077C1599.43 109.54 1597.04 98.2478 1597.04 86.8434L1689.5 86.8434L1781.95 86.8434Z"/>
</mask>
<path d="M1781.95 86.8434C1781.95 98.2478 1779.56 109.541 1774.92 120.077C1770.27 130.613 1763.46 140.187 1754.87 148.251C1746.29 156.315 1736.1 162.712 1724.88 167.076C1713.66 171.44 1701.64 173.686 1689.5 173.686C1677.35 173.686 1665.33 171.44 1654.11 167.076C1642.89 162.711 1632.7 156.315 1624.12 148.251C1615.53 140.186 1608.72 130.613 1604.07 120.077C1599.43 109.54 1597.04 98.2478 1597.04 86.8434L1689.5 86.8434L1781.95 86.8434Z" fill="#FFF9E5" stroke="black" stroke-width="4" mask="url(#path-10-inside-10_157_6429)"/>
<mask id="path-11-inside-11_157_6429" fill="white">
<path d="M1937 86.8431C1937 98.2474 1934.97 109.54 1931.03 120.076C1927.08 130.613 1921.31 140.186 1914.02 148.25C1906.74 156.314 1898.09 162.711 1888.57 167.075C1879.05 171.44 1868.85 173.686 1858.55 173.686C1848.25 173.686 1838.04 171.44 1828.53 167.075C1819.01 162.711 1810.36 156.314 1803.07 148.25C1795.79 140.186 1790.01 130.613 1786.07 120.076C1782.13 109.54 1780.1 98.2474 1780.1 86.8431L1858.55 86.8431L1937 86.8431Z"/>
</mask>
<path d="M1937 86.8431C1937 98.2474 1934.97 109.54 1931.03 120.076C1927.08 130.613 1921.31 140.186 1914.02 148.25C1906.74 156.314 1898.09 162.711 1888.57 167.075C1879.05 171.44 1868.85 173.686 1858.55 173.686C1848.25 173.686 1838.04 171.44 1828.53 167.075C1819.01 162.711 1810.36 156.314 1803.07 148.25C1795.79 140.186 1790.01 130.613 1786.07 120.076C1782.13 109.54 1780.1 98.2474 1780.1 86.8431L1858.55 86.8431L1937 86.8431Z" fill="#FFF9E5" stroke="black" stroke-width="4" mask="url(#path-11-inside-11_157_6429)"/>
<path d="M0.4375 20.0033L1938 20.0033V91.6832L0.4375 91.6859L0.4375 20.0033Z" fill="#FFF9E5"/>
</svg>
