<svg width="1938" height="175" viewBox="0 0 1938 175" fill="none" xmlns="http://www.w3.org/2000/svg">
<mask id="path-1-inside-1_157_6415" fill="white">
<path d="M1071.35 87.5291C1071.35 76.1247 1073.41 64.832 1077.4 54.2957C1081.39 43.7595 1087.23 34.186 1094.6 26.1219C1101.98 18.0578 1110.73 11.661 1120.36 7.29673C1129.99 2.93247 1140.31 0.686218 1150.74 0.686218C1161.16 0.686219 1171.49 2.93248 1181.12 7.29674C1190.75 11.661 1199.5 18.0578 1206.87 26.1219C1214.24 34.186 1220.09 43.7595 1224.08 54.2957C1228.07 64.832 1230.12 76.1247 1230.12 87.5291L1150.74 87.5291L1071.35 87.5291Z"/>
</mask>
<path d="M1071.35 87.5291C1071.35 76.1247 1073.41 64.832 1077.4 54.2957C1081.39 43.7595 1087.23 34.186 1094.6 26.1219C1101.98 18.0578 1110.73 11.661 1120.36 7.29673C1129.99 2.93247 1140.31 0.686218 1150.74 0.686218C1161.16 0.686219 1171.49 2.93248 1181.12 7.29674C1190.75 11.661 1199.5 18.0578 1206.87 26.1219C1214.24 34.186 1220.09 43.7595 1224.08 54.2957C1228.07 64.832 1230.12 76.1247 1230.12 87.5291L1150.74 87.5291L1071.35 87.5291Z" fill="#00E440" stroke="black" stroke-width="4" mask="url(#path-1-inside-1_157_6415)"/>
<mask id="path-2-inside-2_157_6415" fill="white">
<path d="M1779.23 86.8428C1779.23 75.4385 1781.28 64.1458 1785.27 53.6095C1789.26 43.0733 1795.11 33.4998 1802.48 25.4357C1809.85 17.3716 1818.6 10.9748 1828.24 6.61052C1837.87 2.24626 1848.19 -4.98501e-07 1858.62 0C1869.04 4.98501e-07 1879.36 2.24626 1888.99 6.61052C1898.63 10.9748 1907.38 17.3716 1914.75 25.4357C1922.12 33.4998 1927.97 43.0733 1931.96 53.6095C1935.95 64.1458 1938 75.4385 1938 86.8428L1858.62 86.8428H1779.23Z"/>
</mask>
<path d="M1779.23 86.8428C1779.23 75.4385 1781.28 64.1458 1785.27 53.6095C1789.26 43.0733 1795.11 33.4998 1802.48 25.4357C1809.85 17.3716 1818.6 10.9748 1828.24 6.61052C1837.87 2.24626 1848.19 -4.98501e-07 1858.62 0C1869.04 4.98501e-07 1879.36 2.24626 1888.99 6.61052C1898.63 10.9748 1907.38 17.3716 1914.75 25.4357C1922.12 33.4998 1927.97 43.0733 1931.96 53.6095C1935.95 64.1458 1938 75.4385 1938 86.8428L1858.62 86.8428H1779.23Z" fill="#00E440" stroke="black" stroke-width="4" mask="url(#path-2-inside-2_157_6415)"/>
<mask id="path-3-inside-3_157_6415" fill="white">
<path d="M888.293 87.5289C888.293 76.1245 890.685 64.8318 895.331 54.2956C899.978 43.7593 906.788 34.1858 915.374 26.1217C923.96 18.0576 934.152 11.6608 945.37 7.29655C956.588 2.93229 968.611 0.686035 980.753 0.686035C992.895 0.686036 1004.92 2.93229 1016.14 7.29655C1027.35 11.6608 1037.55 18.0576 1046.13 26.1217C1054.72 34.1858 1061.53 43.7593 1066.17 54.2956C1070.82 64.8318 1073.21 76.1245 1073.21 87.5289L980.753 87.5289L888.293 87.5289Z"/>
</mask>
<path d="M888.293 87.5289C888.293 76.1245 890.685 64.8318 895.331 54.2956C899.978 43.7593 906.788 34.1858 915.374 26.1217C923.96 18.0576 934.152 11.6608 945.37 7.29655C956.588 2.93229 968.611 0.686035 980.753 0.686035C992.895 0.686036 1004.92 2.93229 1016.14 7.29655C1027.35 11.6608 1037.55 18.0576 1046.13 26.1217C1054.72 34.1858 1061.53 43.7593 1066.17 54.2956C1070.82 64.8318 1073.21 76.1245 1073.21 87.5289L980.753 87.5289L888.293 87.5289Z" fill="#00E440" stroke="black" stroke-width="4" mask="url(#path-3-inside-3_157_6415)"/>
<mask id="path-4-inside-4_157_6415" fill="white">
<path d="M1596.17 86.8428C1596.17 75.4385 1598.56 64.1458 1603.21 53.6095C1607.85 43.0733 1614.66 33.4998 1623.25 25.4357C1631.84 17.3716 1642.03 10.9748 1653.25 6.61052C1664.46 2.24626 1676.49 -4.98501e-07 1688.63 0C1700.77 4.98501e-07 1712.79 2.24626 1724.01 6.61052C1735.23 10.9748 1745.42 17.3716 1754.01 25.4357C1762.59 33.4998 1769.4 43.0733 1774.05 53.6095C1778.7 64.1458 1781.09 75.4385 1781.09 86.8428L1688.63 86.8428L1596.17 86.8428Z"/>
</mask>
<path d="M1596.17 86.8428C1596.17 75.4385 1598.56 64.1458 1603.21 53.6095C1607.85 43.0733 1614.66 33.4998 1623.25 25.4357C1631.84 17.3716 1642.03 10.9748 1653.25 6.61052C1664.46 2.24626 1676.49 -4.98501e-07 1688.63 0C1700.77 4.98501e-07 1712.79 2.24626 1724.01 6.61052C1735.23 10.9748 1745.42 17.3716 1754.01 25.4357C1762.59 33.4998 1769.4 43.0733 1774.05 53.6095C1778.7 64.1458 1781.09 75.4385 1781.09 86.8428L1688.63 86.8428L1596.17 86.8428Z" fill="#00E440" stroke="black" stroke-width="4" mask="url(#path-4-inside-4_157_6415)"/>
<mask id="path-5-inside-5_157_6415" fill="white">
<path d="M705.231 87.5291C705.231 76.1247 707.622 64.832 712.269 54.2957C716.915 43.7595 723.726 34.186 732.311 26.1219C740.897 18.0578 751.09 11.661 762.308 7.29673C773.525 2.93247 785.548 0.686218 797.69 0.686218C809.832 0.686219 821.856 2.93248 833.073 7.29674C844.291 11.661 854.484 18.0578 863.07 26.1219C871.655 34.186 878.466 43.7595 883.112 54.2957C887.759 64.832 890.15 76.1247 890.15 87.5291L797.69 87.5291L705.231 87.5291Z"/>
</mask>
<path d="M705.231 87.5291C705.231 76.1247 707.622 64.832 712.269 54.2957C716.915 43.7595 723.726 34.186 732.311 26.1219C740.897 18.0578 751.09 11.661 762.308 7.29673C773.525 2.93247 785.548 0.686218 797.69 0.686218C809.832 0.686219 821.856 2.93248 833.073 7.29674C844.291 11.661 854.484 18.0578 863.07 26.1219C871.655 34.186 878.466 43.7595 883.112 54.2957C887.759 64.832 890.15 76.1247 890.15 87.5291L797.69 87.5291L705.231 87.5291Z" fill="#00E440" stroke="black" stroke-width="4" mask="url(#path-5-inside-5_157_6415)"/>
<mask id="path-6-inside-6_157_6415" fill="white">
<path d="M1413.11 86.8428C1413.11 75.4385 1415.5 64.1458 1420.15 53.6095C1424.79 43.0733 1431.6 33.4998 1440.19 25.4357C1448.77 17.3716 1458.97 10.9748 1470.18 6.61052C1481.4 2.24626 1493.43 -4.98501e-07 1505.57 0C1517.71 4.98501e-07 1529.73 2.24626 1540.95 6.61052C1552.17 10.9748 1562.36 17.3716 1570.95 25.4357C1579.53 33.4998 1586.34 43.0733 1590.99 53.6095C1595.64 64.1458 1598.03 75.4385 1598.03 86.8428L1505.57 86.8428L1413.11 86.8428Z"/>
</mask>
<path d="M1413.11 86.8428C1413.11 75.4385 1415.5 64.1458 1420.15 53.6095C1424.79 43.0733 1431.6 33.4998 1440.19 25.4357C1448.77 17.3716 1458.97 10.9748 1470.18 6.61052C1481.4 2.24626 1493.43 -4.98501e-07 1505.57 0C1517.71 4.98501e-07 1529.73 2.24626 1540.95 6.61052C1552.17 10.9748 1562.36 17.3716 1570.95 25.4357C1579.53 33.4998 1586.34 43.0733 1590.99 53.6095C1595.64 64.1458 1598.03 75.4385 1598.03 86.8428L1505.57 86.8428L1413.11 86.8428Z" fill="#00E440" stroke="black" stroke-width="4" mask="url(#path-6-inside-6_157_6415)"/>
<mask id="path-7-inside-7_157_6415" fill="white">
<path d="M522.169 87.5291C522.169 76.1247 524.561 64.832 529.207 54.2957C533.854 43.7595 540.664 34.186 549.25 26.1219C557.836 18.0578 568.028 11.661 579.246 7.29673C590.464 2.93247 602.487 0.686218 614.629 0.686218C626.771 0.686219 638.794 2.93248 650.012 7.29674C661.23 11.661 671.422 18.0578 680.008 26.1219C688.594 34.186 695.404 43.7595 700.051 54.2957C704.697 64.832 707.089 76.1247 707.089 87.5291L614.629 87.5291L522.169 87.5291Z"/>
</mask>
<path d="M522.169 87.5291C522.169 76.1247 524.561 64.832 529.207 54.2957C533.854 43.7595 540.664 34.186 549.25 26.1219C557.836 18.0578 568.028 11.661 579.246 7.29673C590.464 2.93247 602.487 0.686218 614.629 0.686218C626.771 0.686219 638.794 2.93248 650.012 7.29674C661.23 11.661 671.422 18.0578 680.008 26.1219C688.594 34.186 695.404 43.7595 700.051 54.2957C704.697 64.832 707.089 76.1247 707.089 87.5291L614.629 87.5291L522.169 87.5291Z" fill="#00E440" stroke="black" stroke-width="4" mask="url(#path-7-inside-7_157_6415)"/>
<mask id="path-8-inside-8_157_6415" fill="white">
<path d="M1230.05 86.8428C1230.05 75.4385 1232.44 64.1458 1237.08 53.6095C1241.73 43.0733 1248.54 33.4998 1257.13 25.4357C1265.71 17.3716 1275.91 10.9748 1287.12 6.61052C1298.34 2.24626 1310.36 -4.98501e-07 1322.51 0C1334.65 4.98501e-07 1346.67 2.24626 1357.89 6.61052C1369.11 10.9748 1379.3 17.3716 1387.88 25.4357C1396.47 33.4998 1403.28 43.0733 1407.93 53.6095C1412.57 64.1458 1414.97 75.4385 1414.97 86.8428L1322.51 86.8428L1230.05 86.8428Z"/>
</mask>
<path d="M1230.05 86.8428C1230.05 75.4385 1232.44 64.1458 1237.08 53.6095C1241.73 43.0733 1248.54 33.4998 1257.13 25.4357C1265.71 17.3716 1275.91 10.9748 1287.12 6.61052C1298.34 2.24626 1310.36 -4.98501e-07 1322.51 0C1334.65 4.98501e-07 1346.67 2.24626 1357.89 6.61052C1369.11 10.9748 1379.3 17.3716 1387.88 25.4357C1396.47 33.4998 1403.28 43.0733 1407.93 53.6095C1412.57 64.1458 1414.97 75.4385 1414.97 86.8428L1322.51 86.8428L1230.05 86.8428Z" fill="#00E440" stroke="black" stroke-width="4" mask="url(#path-8-inside-8_157_6415)"/>
<mask id="path-9-inside-9_157_6415" fill="white">
<path d="M339.108 87.5284C339.108 76.1241 341.499 64.8314 346.146 54.2951C350.792 43.7589 357.603 34.1854 366.188 26.1213C374.774 18.0572 384.967 11.6604 396.185 7.29612C407.402 2.93186 419.425 0.685607 431.567 0.685608C443.709 0.685608 455.733 2.93187 466.95 7.29613C478.168 11.6604 488.361 18.0572 496.946 26.1213C505.532 34.1854 512.343 43.7589 516.989 54.2951C521.636 64.8314 524.027 76.1241 524.027 87.5284L431.567 87.5284L339.108 87.5284Z"/>
</mask>
<path d="M339.108 87.5284C339.108 76.1241 341.499 64.8314 346.146 54.2951C350.792 43.7589 357.603 34.1854 366.188 26.1213C374.774 18.0572 384.967 11.6604 396.185 7.29612C407.402 2.93186 419.425 0.685607 431.567 0.685608C443.709 0.685608 455.733 2.93187 466.95 7.29613C478.168 11.6604 488.361 18.0572 496.946 26.1213C505.532 34.1854 512.343 43.7589 516.989 54.2951C521.636 64.8314 524.027 76.1241 524.027 87.5284L431.567 87.5284L339.108 87.5284Z" fill="#00E440" stroke="black" stroke-width="4" mask="url(#path-9-inside-9_157_6415)"/>
<mask id="path-10-inside-10_157_6415" fill="white">
<path d="M156.045 87.5284C156.045 76.1241 158.437 64.8314 163.083 54.2951C167.73 43.7589 174.54 34.1854 183.126 26.1213C191.712 18.0572 201.904 11.6604 213.122 7.29612C224.34 2.93186 236.363 0.685607 248.505 0.685608C260.647 0.685608 272.67 2.93187 283.888 7.29613C295.106 11.6604 305.298 18.0572 313.884 26.1213C322.47 34.1854 329.28 43.7589 333.927 54.2951C338.573 64.8314 340.965 76.1241 340.965 87.5284L248.505 87.5284L156.045 87.5284Z"/>
</mask>
<path d="M156.045 87.5284C156.045 76.1241 158.437 64.8314 163.083 54.2951C167.73 43.7589 174.54 34.1854 183.126 26.1213C191.712 18.0572 201.904 11.6604 213.122 7.29612C224.34 2.93186 236.363 0.685607 248.505 0.685608C260.647 0.685608 272.67 2.93187 283.888 7.29613C295.106 11.6604 305.298 18.0572 313.884 26.1213C322.47 34.1854 329.28 43.7589 333.927 54.2951C338.573 64.8314 340.965 76.1241 340.965 87.5284L248.505 87.5284L156.045 87.5284Z" fill="#00E440" stroke="black" stroke-width="4" mask="url(#path-10-inside-10_157_6415)"/>
<mask id="path-11-inside-11_157_6415" fill="white">
<path d="M1.00166 87.5289C1.00166 76.1245 3.03085 64.8318 6.97338 54.2956C10.9159 43.7593 16.6945 34.1858 23.9794 26.1217C31.2642 18.0576 39.9126 11.6608 49.4307 7.29655C58.9488 2.93229 69.1502 0.686035 79.4525 0.686035C89.7548 0.686036 99.9562 2.93229 109.474 7.29655C118.992 11.6608 127.641 18.0576 134.926 26.1217C142.21 34.1858 147.989 43.7593 151.932 54.2956C155.874 64.8318 157.903 76.1245 157.903 87.5289L79.4525 87.5289L1.00166 87.5289Z"/>
</mask>
<path d="M1.00166 87.5289C1.00166 76.1245 3.03085 64.8318 6.97338 54.2956C10.9159 43.7593 16.6945 34.1858 23.9794 26.1217C31.2642 18.0576 39.9126 11.6608 49.4307 7.29655C58.9488 2.93229 69.1502 0.686035 79.4525 0.686035C89.7548 0.686036 99.9562 2.93229 109.474 7.29655C118.992 11.6608 127.641 18.0576 134.926 26.1217C142.21 34.1858 147.989 43.7593 151.932 54.2956C155.874 64.8318 157.903 76.1245 157.903 87.5289L79.4525 87.5289L1.00166 87.5289Z" fill="#00E440" stroke="black" stroke-width="4" mask="url(#path-11-inside-11_157_6415)"/>
<path d="M1937.56 155.369L0.00018418 155.369V83.6886L1937.56 83.6859V155.369Z" fill="#00E440"/>
</svg>
