<svg width="973" height="387" viewBox="0 0 973 387" fill="none" xmlns="http://www.w3.org/2000/svg">
<path d="M456.681 3.4585H412.305C393.575 50.5392 327.142 52.8748 305.432 6.46785L304.024 3.4585H249.242V383.942H304.26L307.022 379.706C332.437 340.729 390.136 343.341 412.094 383.942H456.681H954.086C963.04 383.942 970.299 376.683 970.299 367.729V19.6713C970.299 10.7172 963.04 3.4585 954.086 3.4585H456.681Z" fill="white" stroke="black" stroke-width="5"/>
<path d="M314.26 11.8513L310 3.4585H18.914C9.95996 3.4585 2.7012 10.7172 2.7012 19.6713V367.729C2.7012 376.683 9.95993 383.942 18.914 383.942H310.17L315.177 376.155C318.596 370.837 322.9 366.144 327.902 362.278L328.931 361.483C331.229 359.707 333.703 358.169 336.313 356.895C340.787 354.711 345.609 353.326 350.56 352.803L361.197 351.679V186.449V39.7494L352.801 39.0521C346.502 38.529 340.383 36.6938 334.836 33.6646C329.909 30.9741 325.525 27.3915 321.907 23.0993L320.986 22.0065C318.361 18.8916 316.104 15.4839 314.26 11.8513Z" fill="#2BADE5" stroke="black" stroke-width="5"/>
<line x1="3.5" y1="-3.5" x2="285.151" y2="-3.5" transform="matrix(0 -1 -1 0 360.418 337.794)" stroke="black" stroke-width="7" stroke-linecap="round" stroke-dasharray="14.97 14.97"/>
</svg>
