<svg width="973" height="386" viewBox="0 0 973 386" fill="none" xmlns="http://www.w3.org/2000/svg">
<path d="M456.681 2.5H412.305C393.575 49.5808 327.142 51.9163 305.432 5.50935L304.024 2.5H249.242V382.984H304.26L307.022 378.748C332.437 339.77 390.136 342.382 412.094 382.984H456.681H954.086C963.04 382.984 970.299 375.725 970.299 366.771V18.7128C970.299 9.75873 963.04 2.5 954.086 2.5H456.681Z" fill="white" stroke="black" stroke-width="5"/>
<path d="M314.26 10.8928L310 2.5H18.914C9.95996 2.5 2.7012 9.75872 2.7012 18.7128V366.771C2.7012 375.725 9.95993 382.984 18.914 382.984H310.17L315.177 375.196C318.596 369.879 322.9 365.186 327.902 361.32L328.931 360.525C331.229 358.748 333.703 357.211 336.313 355.937C340.787 353.753 345.609 352.368 350.56 351.845L361.197 350.72V185.491V38.7909L352.801 38.0936C346.502 37.5705 340.383 35.7353 334.836 32.7061C329.909 30.0156 325.525 26.433 321.907 22.1408L320.986 21.048C318.361 17.9331 316.104 14.5254 314.26 10.8928Z" fill="#A580FF" stroke="black" stroke-width="5"/>
<line x1="3.5" y1="-3.5" x2="285.151" y2="-3.5" transform="matrix(0 -1 -1 0 360.418 336.836)" stroke="black" stroke-width="7" stroke-linecap="round" stroke-dasharray="14.97 14.97"/>
</svg>
