<svg width="973" height="386" viewBox="0 0 973 386" fill="none" xmlns="http://www.w3.org/2000/svg">
<path d="M456.681 3.0166H412.305C393.575 50.0974 327.142 52.4329 305.432 6.02595L304.024 3.0166H249.242V383.5H304.26L307.022 379.264C332.437 340.287 390.136 342.899 412.094 383.5H456.681H954.086C963.04 383.5 970.299 376.241 970.299 367.287V19.2294C970.299 10.2753 963.04 3.0166 954.086 3.0166H456.681Z" fill="white" stroke="black" stroke-width="5"/>
<path d="M314.26 11.4094L310 3.0166H18.914C9.95996 3.0166 2.7012 10.2753 2.7012 19.2294V367.287C2.7012 376.241 9.95993 383.5 18.914 383.5H310.17L315.177 375.713C318.596 370.395 322.9 365.702 327.902 361.836L328.931 361.041C331.229 359.265 333.703 357.727 336.313 356.453C340.787 354.269 345.609 352.884 350.56 352.361L361.197 351.237V186.007V39.3075L352.801 38.6102C346.502 38.0871 340.383 36.2519 334.836 33.2227C329.909 30.5322 325.525 26.9496 321.907 22.6574L320.986 21.5646C318.361 18.4497 316.104 15.042 314.26 11.4094Z" fill="#00E440" stroke="black" stroke-width="5"/>
<line x1="3.5" y1="-3.5" x2="285.151" y2="-3.5" transform="matrix(0 -1 -1 0 360.418 337.353)" stroke="black" stroke-width="7" stroke-linecap="round" stroke-dasharray="14.97 14.97"/>
</svg>
