<svg width="973" height="386" viewBox="0 0 973 386" fill="none" xmlns="http://www.w3.org/2000/svg">
<path d="M456.681 2.87939H412.305C393.575 49.9601 327.142 52.2957 305.432 5.88875L304.024 2.87939H249.242V383.363H304.26L307.022 379.127C332.437 340.15 390.136 342.762 412.094 383.363H456.681H954.086C963.04 383.363 970.299 376.104 970.299 367.15V19.0922C970.299 10.1381 963.04 2.87939 954.086 2.87939H456.681Z" fill="white" stroke="black" stroke-width="5"/>
<path d="M314.26 11.2722L310 2.87939H18.914C9.95996 2.87939 2.7012 10.1381 2.7012 19.0922V367.15C2.7012 376.104 9.95993 383.363 18.914 383.363H310.17L315.177 375.575C318.596 370.258 322.9 365.565 327.902 361.699L328.931 360.904C331.229 359.128 333.703 357.59 336.313 356.316C340.787 354.132 345.609 352.747 350.56 352.224L361.197 351.1V185.87V39.1703L352.801 38.473C346.502 37.9499 340.383 36.1147 334.836 33.0855C329.909 30.395 325.525 26.8124 321.907 22.5202L320.986 21.4274C318.361 18.3125 316.104 14.9048 314.26 11.2722Z" fill="#EF8421" stroke="black" stroke-width="5"/>
<line x1="3.5" y1="-3.5" x2="285.151" y2="-3.5" transform="matrix(0 -1 -1 0 360.418 337.216)" stroke="black" stroke-width="7" stroke-linecap="round" stroke-dasharray="14.97 14.97"/>
</svg>
