<svg width="427" height="806" viewBox="0 0 427 806" fill="none" xmlns="http://www.w3.org/2000/svg">
<g clip-path="url(#clip0_256_271)">
<rect width="427" height="806" fill="white"/>
<path d="M503.33 376.41L479.857 382.731C474.203 384.253 472.363 391.295 476.703 394.798L494.725 409.343C496.982 411.165 497.01 414.581 494.784 416.672L474.996 435.271C473.085 437.067 470.167 437.242 468.229 435.678L447.726 419.129C443.758 415.927 437.485 418.126 436.164 423.184L430.427 445.136C429.729 447.808 426.967 449.538 424.258 449.001L394.681 443.139C391.973 442.602 390.343 440.001 391.041 437.33L396.778 415.378C398.099 410.32 393.538 405.973 388.369 407.365L361.662 414.557C359.137 415.236 356.594 413.978 355.764 411.639L347.167 387.415C346.2 384.69 347.922 381.622 350.862 380.83L374.336 374.509C379.989 372.987 381.829 365.945 377.489 362.442L359.468 347.897C357.211 346.075 357.183 342.66 359.409 340.568L379.197 321.97C381.108 320.173 384.026 319.998 385.964 321.562L406.467 338.111C410.435 341.314 416.707 339.114 418.029 334.056L423.687 312.404C424.385 309.733 427.147 308.002 429.856 308.539L459.433 314.401C462.142 314.938 463.771 317.539 463.073 320.211L457.415 341.863C456.093 346.921 460.655 351.267 465.824 349.875L492.53 342.684C495.055 342.004 497.598 343.262 498.429 345.601L507.026 369.826C507.993 372.55 506.271 375.619 503.33 376.41Z" fill="#00E440" stroke="black" stroke-width="2"/>
<path d="M3.55379 -20.9703L17.7074 -9.94595L18.1236 -9.62184L18.626 -9.7823L35.7162 -15.2402L37.9289 2.56336L37.9939 3.08677L38.4627 3.32859L54.4066 11.5539L43.3822 25.7075L43.0581 26.1236L43.2186 26.6261L48.6764 43.7162L30.8729 45.929L30.3495 45.994L30.1077 46.4628L21.8824 62.4066L7.72876 51.3823L7.31264 51.0582L6.8102 51.2186L-10.28 56.6765L-12.4927 38.873L-12.5578 38.3495L-13.0265 38.1077L-28.9704 29.8825L-17.946 15.7288L-17.6219 15.3127L-17.7824 14.8103L-23.2402 -2.2799L-5.43671 -4.49264L-4.91329 -4.55769L-4.67147 -5.02644L3.55379 -20.9703Z" fill="#A580FF" stroke="black" stroke-width="1.99965"/>
</g>
<defs>
<clipPath id="clip0_256_271">
<rect width="427" height="806" fill="white"/>
</clipPath>
</defs>
</svg>
