<svg width="370" height="729" viewBox="0 0 370 729" fill="none" xmlns="http://www.w3.org/2000/svg">
<g clip-path="url(#clip0_320_277)">
<rect width="370" height="729" fill="white"/>
<path d="M315.334 107.941L315.175 106.11L313.724 107.238L306.79 112.628C292.646 123.623 273.855 106.682 283.33 91.4788L285.73 87.6277L286.841 85.8458L284.758 86.1065L281.48 86.5167C263.696 88.7421 256.686 64.215 272.959 56.7062L272.54 55.7982L272.91 54.8693C256.336 48.2607 262.16 23.4916 279.942 24.9602L281.148 25.0598L281.231 24.0632L282.027 23.4587C276.536 16.2218 278.1 7.81576 282.96 2.44358C287.814 -2.92224 295.855 -5.1555 303.363 -0.0859059L307.635 2.79827L309.25 3.88908L309.194 1.94053L308.959 -6.16973C308.446 -23.8821 332.798 -29.2264 339.75 -12.927L343.951 -3.07614L344.655 -1.42327L345.689 -2.89347L351.846 -11.6555C362.034 -26.1535 384.743 -15.8629 380.559 1.35573L378.643 9.23988L378.182 11.1341L379.989 10.403L384.768 8.47C393.166 5.0723 400.566 8.92846 404.199 15.1863C407.836 21.4516 407.618 29.999 400.742 35.9361L401.395 36.693L401.269 37.685L402.469 37.8383C420.169 40.099 420.715 65.5376 403.129 68.5558L403.298 69.5414L402.699 70.3424C417.056 81.0706 405.099 103.604 388.167 97.73L385.046 96.6472L383.062 95.959L383.778 97.9329L385.325 102.199C391.433 119.04 369.529 131.704 357.981 118.008L352.319 111.294L351.135 109.889L350.599 111.647L347.56 121.607C342.411 138.481 317.763 135.89 316.235 118.314L315.334 107.941Z" fill="#EF8421" stroke="black" stroke-width="2"/>
</g>
<defs>
<clipPath id="clip0_320_277">
<rect width="370" height="729" fill="white"/>
</clipPath>
</defs>
</svg>
