<svg width="430" height="729" viewBox="0 0 430 729" fill="none" xmlns="http://www.w3.org/2000/svg">
<g clip-path="url(#clip0_330_271)">
<rect width="430" height="729" fill="white"/>
<path d="M264.091 -39.0121L292.739 -30.8457L293.26 -30.6972L293.669 -31.0521L315.693 -50.1655L330.982 -24.0218L331.241 -23.5782L331.753 -23.5308L361.293 -20.7948L354.202 8.01246L354.08 8.51138L354.414 8.90173L374.107 31.9102L348.834 46.4592L348.365 46.7293L348.335 47.2698L346.667 77.012L318.019 68.8456L317.499 68.6972L317.09 69.052L295.065 88.1654L279.777 62.0217L279.517 61.5782L279.006 61.5308L249.465 58.7948L256.556 29.9875L256.679 29.4886L256.345 29.0982L236.651 6.08971L261.924 -8.45924L262.393 -8.72935L262.424 -9.26991L264.091 -39.0121Z" fill="#A580FF" stroke="black" stroke-width="2"/>
</g>
<defs>
<clipPath id="clip0_330_271">
<rect width="430" height="729" fill="white"/>
</clipPath>
</defs>
</svg>
