{"accessors" : [{"bufferView" : 0, "byteOffset" : 0, "componentType" : 5123, "count" : 78, "type" : "SCALAR", "max" : [77], "min" : [0]}, {"bufferView" : 1, "byteOffset" : 0, "componentType" : 5126, "count" : 78, "type" : "VEC3", "max" : [485, 5.236156463623047, 547.1670532226562], "min" : [-485, -5.236148834228516, 1.52587890625E-05], "name" : "POSITION"}, {"bufferView" : 1, "byteOffset" : 12, "componentType" : 5126, "count" : 78, "type" : "VEC3", "max" : [1.0000044107437134, 1.0000044107437134, 1.0000044107437134], "min" : [-1.0000044107437134, -1.0000044107437134, -1.0000044107437134], "name" : "NORMAL"}, {"bufferView" : 1, "byteOffset" : 24, "componentType" : 5126, "count" : 78, "type" : "VEC2", "max" : [1, 1], "min" : [0, 0], "name" : "TEXCOORD_0"}, {"bufferView" : 0, "byteOffset" : 156, "componentType" : 5123, "count" : 24336, "type" : "SCALAR", "max" : [24335], "min" : [0]}, {"bufferView" : 2, "byteOffset" : 0, "componentType" : 5126, "count" : 24336, "type" : "VEC3", "max" : [485, 12.292190551757812, 547.19091796875], "min" : [-485.00006103515625, -12.292396545410156, 0], "name" : "POSITION"}, {"bufferView" : 2, "byteOffset" : 12, "componentType" : 5126, "count" : 24336, "type" : "VEC3", "max" : [1.0000044107437134, 1.0000044107437134, 1.0000044107437134], "min" : [-1.0000044107437134, -1.0000044107437134, -1.0000044107437134], "name" : "NORMAL"}, {"bufferView" : 2, "byteOffset" : 24, "componentType" : 5126, "count" : 24336, "type" : "VEC2", "max" : [0.009999999776482582, 1], "min" : [0, 0.30000001192092896], "name" : "TEXCOORD_0"}, {"bufferView" : 0, "byteOffset" : 48828, "componentType" : 5123, "count" : 11436, "type" : "SCALAR", "max" : [11435], "min" : [0]}, {"bufferView" : 3, "byteOffset" : 0, "componentType" : 5126, "count" : 11436, "type" : "VEC3", "max" : [500.71319580078125, 117.20500946044922, 225.033935546875], "min" : [-25.430389404296875, -144.98651123046875, 2.7143402099609375], "name" : "POSITION"}, {"bufferView" : 3, "byteOffset" : 12, "componentType" : 5126, "count" : 11436, "type" : "VEC3", "max" : [0.9997891187667847, 0.9936054944992065, 0.9998364448547363], "min" : [-0.9911745190620422, -0.9935758113861084, -0.9998008012771606], "name" : "NORMAL"}, {"bufferView" : 0, "byteOffset" : 71700, "componentType" : 5123, "count" : 36, "type" : "SCALAR", "max" : [35], "min" : [0]}, {"bufferView" : 4, "byteOffset" : 0, "componentType" : 5126, "count" : 36, "type" : "VEC3", "max" : [18.036691665649414, 1.925267219543457, 7.295745849609375], "min" : [-18.036693572998047, -1.9252849817276, -9.5367431640625E-07], "name" : "POSITION"}, {"bufferView" : 4, "byteOffset" : 12, "componentType" : 5126, "count" : 36, "type" : "VEC3", "max" : [1.0000044107437134, 1.0000044107437134, 1.0000044107437134], "min" : [-1.0000044107437134, -1.0000044107437134, -1.0000044107437134], "name" : "NORMAL"}, {"bufferView" : 4, "byteOffset" : 24, "componentType" : 5126, "count" : 36, "type" : "VEC2", "max" : [1, 1], "min" : [0, 0], "name" : "TEXCOORD_0"}, {"bufferView" : 0, "byteOffset" : 71772, "componentType" : 5123, "count" : 4812, "type" : "SCALAR", "max" : [4811], "min" : [0]}, {"bufferView" : 5, "byteOffset" : 0, "componentType" : 5126, "count" : 4812, "type" : "VEC3", "max" : [22.679088592529297, 16.86237335205078, 15.000015258789062], "min" : [-30.630653381347656, -16.862350463867188, 1.430511474609375E-05], "name" : "POSITION"}, {"bufferView" : 5, "byteOffset" : 12, "componentType" : 5126, "count" : 4812, "type" : "VEC3", "max" : [1.0000044107437134, 1.0000044107437134, 1.0000044107437134], "min" : [-1.0000044107437134, -1.0000044107437134, -1.0000044107437134], "name" : "NORMAL"}, {"bufferView" : 5, "byteOffset" : 24, "componentType" : 5126, "count" : 4812, "type" : "VEC2", "max" : [16.862356185913086, 8.5], "min" : [-16.862356185913086, -6.5], "name" : "TEXCOORD_0"}, {"bufferView" : 0, "byteOffset" : 81396, "componentType" : 5123, "count" : 780, "type" : "SCALAR", "max" : [779], "min" : [0]}, {"bufferView" : 6, "byteOffset" : 0, "componentType" : 5126, "count" : 780, "type" : "VEC3", "max" : [30.630748748779297, 11.004996299743652, 9.000012397766113], "min" : [22.679065704345703, -11.005021095275879, 6.000011444091797], "name" : "POSITION"}, {"bufferView" : 6, "byteOffset" : 12, "componentType" : 5126, "count" : 780, "type" : "VEC3", "max" : [0.99681156873703, 1.0000044107437134, 1.0000044107437134], "min" : [-1.1028291737602558E-06, -1.0000044107437134, -1.0000044107437134], "name" : "NORMAL"}, {"bufferView" : 6, "byteOffset" : 24, "componentType" : 5126, "count" : 780, "type" : "VEC2", "max" : [1, 1], "min" : [0, 0], "name" : "TEXCOORD_0"}, {"bufferView" : 0, "byteOffset" : 82956, "componentType" : 5123, "count" : 6, "type" : "SCALAR", "max" : [5], "min" : [0]}, {"bufferView" : 7, "byteOffset" : 0, "componentType" : 5126, "count" : 6, "type" : "VEC3", "max" : [475, -3.2356910705566406, 537.1670532226562], "min" : [-475, -3.23614501953125, 10.000015258789062], "name" : "POSITION"}, {"bufferView" : 7, "byteOffset" : 12, "componentType" : 5126, "count" : 6, "type" : "VEC3", "max" : [-4.75835406632541E-07, -1.0000044107437134, 3.6181266871437856E-09], "min" : [-4.75835406632541E-07, -1.0000044107437134, 3.6181266871437856E-09], "name" : "NORMAL"}, {"bufferView" : 7, "byteOffset" : 24, "componentType" : 5126, "count" : 6, "type" : "VEC2", "max" : [1, 1], "min" : [0, 0], "name" : "TEXCOORD_0"}, {"bufferView" : 0, "byteOffset" : 82968, "componentType" : 5123, "count" : 15735, "type" : "SCALAR", "max" : [15734], "min" : [0]}, {"bufferView" : 8, "byteOffset" : 0, "componentType" : 5126, "count" : 15735, "type" : "VEC3", "max" : [16.825653076171875, 97.36935424804688, 122.14158630371094], "min" : [-16.825618743896484, -97.36933898925781, 3.0517578125E-05], "name" : "POSITION"}, {"bufferView" : 8, "byteOffset" : 12, "componentType" : 5126, "count" : 15735, "type" : "VEC3", "max" : [0.9999884963035583, 1.0000044107437134, 0.9999920129776001], "min" : [-0.9999813437461853, -0.9980069994926453, -1.0000044107437134], "name" : "NORMAL"}, {"bufferView" : 8, "byteOffset" : 24, "componentType" : 5126, "count" : 15735, "type" : "VEC2", "max" : [1.745481252670288, 1.0467432737350464], "min" : [-0.6230326890945435, 0], "name" : "TEXCOORD_0"}, {"bufferView" : 0, "byteOffset" : 114440, "componentType" : 5123, "count" : 282, "type" : "SCALAR", "max" : [281], "min" : [0]}, {"bufferView" : 9, "byteOffset" : 0, "componentType" : 5126, "count" : 282, "type" : "VEC3", "max" : [2.254884719848633, 1.2801865339279175, 4.509787082672119], "min" : [-2.2548999786376953, -1.2801849842071533, 1.1920928955078125E-06], "name" : "POSITION"}, {"bufferView" : 9, "byteOffset" : 12, "componentType" : 5126, "count" : 282, "type" : "VEC3", "max" : [0.9396982192993164, 1.0000044107437134, 0.9396972060203552], "min" : [-0.9396979212760925, -1.0000044107437134, -0.939697265625], "name" : "NORMAL"}, {"bufferView" : 9, "byteOffset" : 24, "componentType" : 5126, "count" : 282, "type" : "VEC2", "max" : [2.6717915534973145, 3.6717915534973145], "min" : [-2.6717917919158936, -1.6717915534973145], "name" : "TEXCOORD_0"}, {"bufferView" : 0, "byteOffset" : 115004, "componentType" : 5123, "count" : 282, "type" : "SCALAR", "max" : [281], "min" : [0]}, {"bufferView" : 10, "byteOffset" : 0, "componentType" : 5126, "count" : 282, "type" : "VEC3", "max" : [2.254884719848633, 1.2801848649978638, 2.2548980712890625], "min" : [-2.254901885986328, -1.280186414718628, -2.254889488220215], "name" : "POSITION"}, {"bufferView" : 10, "byteOffset" : 12, "componentType" : 5126, "count" : 282, "type" : "VEC3", "max" : [0.9396984577178955, 1.0000042915344238, 0.9396988153457642], "min" : [-0.9396976828575134, -1.0000044107437134, -0.9396978616714478], "name" : "NORMAL"}, {"bufferView" : 10, "byteOffset" : 24, "componentType" : 5126, "count" : 282, "type" : "VEC2", "max" : [2.6717915534973145, 3.6717915534973145], "min" : [-2.6717917919158936, -1.6717915534973145], "name" : "TEXCOORD_0"}, {"bufferView" : 0, "byteOffset" : 115568, "componentType" : 5123, "count" : 15735, "type" : "SCALAR", "max" : [15734], "min" : [0]}, {"bufferView" : 11, "byteOffset" : 0, "componentType" : 5126, "count" : 15735, "type" : "VEC3", "max" : [16.825763702392578, 97.36930084228516, 122.14159393310547], "min" : [-16.825590133666992, -97.36939239501953, -2.288818359375E-05], "name" : "POSITION"}, {"bufferView" : 11, "byteOffset" : 12, "componentType" : 5126, "count" : 15735, "type" : "VEC3", "max" : [0.9999884963035583, 0.9980075359344482, 1.0000044107437134], "min" : [-0.9999813437461853, -1.0000044107437134, -0.9999920129776001], "name" : "NORMAL"}, {"bufferView" : 11, "byteOffset" : 24, "componentType" : 5126, "count" : 15735, "type" : "VEC2", "max" : [1.745481252670288, 1.0467432737350464], "min" : [-0.6230326890945435, 0], "name" : "TEXCOORD_0"}, {"bufferView" : 0, "byteOffset" : 147040, "componentType" : 5123, "count" : 282, "type" : "SCALAR", "max" : [281], "min" : [0]}, {"bufferView" : 12, "byteOffset" : 0, "componentType" : 5126, "count" : 282, "type" : "VEC3", "max" : [2.2548999786376953, 1.2801926136016846, 4.509786605834961], "min" : [-2.254884719848633, -1.2801780700683594, 9.5367431640625E-07], "name" : "POSITION"}, {"bufferView" : 12, "byteOffset" : 12, "componentType" : 5126, "count" : 282, "type" : "VEC3", "max" : [0.9396977424621582, 1.0000044107437134, 0.9396972060203552], "min" : [-0.9396978616714478, -1.0000042915344238, -0.9396971464157104], "name" : "NORMAL"}, {"bufferView" : 12, "byteOffset" : 24, "componentType" : 5126, "count" : 282, "type" : "VEC2", "max" : [2.6717915534973145, 3.6717915534973145], "min" : [-2.6717917919158936, -1.6717915534973145], "name" : "TEXCOORD_0"}, {"bufferView" : 0, "byteOffset" : 147604, "componentType" : 5123, "count" : 282, "type" : "SCALAR", "max" : [281], "min" : [0]}, {"bufferView" : 13, "byteOffset" : 0, "componentType" : 5126, "count" : 282, "type" : "VEC3", "max" : [2.25490665435791, 1.2801867723464966, 2.254894256591797], "min" : [-2.2548818588256836, -1.280184268951416, -2.254894256591797], "name" : "POSITION"}, {"bufferView" : 13, "byteOffset" : 12, "componentType" : 5126, "count" : 282, "type" : "VEC3", "max" : [0.7660487294197083, 1.0000044107437134, 0.7660490274429321], "min" : [-0.7660488486289978, -1.0000044107437134, -0.7660515904426575], "name" : "NORMAL"}, {"bufferView" : 13, "byteOffset" : 24, "componentType" : 5126, "count" : 282, "type" : "VEC2", "max" : [2.6717915534973145, 3.6717915534973145], "min" : [-2.6717917919158936, -1.6717915534973145], "name" : "TEXCOORD_0"}], "asset" : {"generator" : "Aspose.3D 24.6.0", "version" : "2.0"}, "buffers" : [{"uri" : "buffer.bin", "byteLength" : 2427360}], "bufferViews" : [{"buffer" : 0, "byteOffset" : 0, "byteLength" : 148168, "target" : 34963}, {"buffer" : 0, "byteOffset" : 148172, "byteLength" : 2496, "byteStride" : 32, "target" : 34962}, {"buffer" : 0, "byteOffset" : 150672, "byteLength" : 778752, "byteStride" : 32, "target" : 34962}, {"buffer" : 0, "byteOffset" : 929428, "byteLength" : 274464, "byteStride" : 24, "target" : 34962}, {"buffer" : 0, "byteOffset" : 1203896, "byteLength" : 1152, "byteStride" : 32, "target" : 34962}, {"buffer" : 0, "byteOffset" : 1205052, "byteLength" : 153984, "byteStride" : 32, "target" : 34962}, {"buffer" : 0, "byteOffset" : 1359040, "byteLength" : 24960, "byteStride" : 32, "target" : 34962}, {"buffer" : 0, "byteOffset" : 1384004, "byteLength" : 192, "byteStride" : 32, "target" : 34962}, {"buffer" : 0, "byteOffset" : 1384200, "byteLength" : 503520, "byteStride" : 32, "target" : 34962}, {"buffer" : 0, "byteOffset" : 1887724, "byteLength" : 9024, "byteStride" : 32, "target" : 34962}, {"buffer" : 0, "byteOffset" : 1896752, "byteLength" : 9024, "byteStride" : 32, "target" : 34962}, {"buffer" : 0, "byteOffset" : 1905780, "byteLength" : 503520, "byteStride" : 32, "target" : 34962}, {"buffer" : 0, "byteOffset" : 2409304, "byteLength" : 9024, "byteStride" : 32, "target" : 34962}, {"buffer" : 0, "byteOffset" : 2418332, "byteLength" : 9024, "byteStride" : 32, "target" : 34962}], "materials" : [{"name" : "tv body_front", "pbrMetallicRoughness" : {"baseColorFactor" : [0.016470590606331808, 0.016470590606331808, 0.016470590606331808, 1], "metallicFactor" : 1, "roughnessFactor" : 1}, "emissiveFactor" : [0, 0, 0], "alphaMode" : "OPAQUE", "doubleSided" : false}, {"name" : "TV_body_back_ncl1_2", "pbrMetallicRoughness" : {"baseColorFactor" : [0.005882353521883492, 0.005882353521883492, 0.005882353521883492, 1], "metallicFactor" : 1, "roughnessFactor" : 1}, "emissiveFactor" : [0, 0, 0], "alphaMode" : "OPAQUE", "doubleSided" : false}, {"name" : "TV_cord", "pbrMetallicRoughness" : {"baseColorFactor" : [0, 0, 0, 1], "metallicFactor" : 1, "roughnessFactor" : 1}, "emissiveFactor" : [0, 0, 0], "alphaMode" : "OPAQUE", "doubleSided" : false}, {"name" : "TV_samsung logo_ncl1_2", "pbrMetallicRoughness" : {"baseColorFactor" : [0.16141177713871002, 0.16141177713871002, 0.16141177713871002, 1], "metallicFactor" : 1, "roughnessFactor" : 1}, "emissiveFactor" : [0, 0, 0], "alphaMode" : "OPAQUE", "doubleSided" : false}, {"name" : "TV_screw", "pbrMetallicRoughness" : {"baseColorFactor" : [0, 0, 0, 1], "metallicFactor" : 1, "roughnessFactor" : 1}, "emissiveFactor" : [0, 0, 0], "alphaMode" : "OPAQUE", "doubleSided" : false}, {"name" : "screen_off", "pbrMetallicRoughness" : {"baseColorFactor" : [0, 0, 0, 1], "metallicFactor" : 1, "roughnessFactor" : 1}, "emissiveFactor" : [0, 0, 0], "alphaMode" : "OPAQUE", "doubleSided" : false}, {"name" : "TV_legs", "pbrMetallicRoughness" : {"baseColorFactor" : [0, 0, 0, 1], "metallicFactor" : 1, "roughnessFactor" : 1}, "emissiveFactor" : [0, 0, 0], "alphaMode" : "OPAQUE", "doubleSided" : false}], "meshes" : [{"primitives" : [{"attributes" : {"POSITION" : 1, "NORMAL" : 2, "TEXCOORD_0" : 3}, "indices" : 0, "material" : 0, "mode" : 4}], "name" : "TV_body_front_ncl1_1"}, {"primitives" : [{"attributes" : {"POSITION" : 5, "NORMAL" : 6, "TEXCOORD_0" : 7}, "indices" : 4, "material" : 1, "mode" : 4}], "name" : "TV_body_back_ncl1_1"}, {"primitives" : [{"attributes" : {"POSITION" : 9, "NORMAL" : 10}, "indices" : 8, "material" : 2, "mode" : 4}], "name" : "cord_ncl1_1"}, {"primitives" : [{"attributes" : {"POSITION" : 12, "NORMAL" : 13, "TEXCOORD_0" : 14}, "indices" : 11, "material" : 3, "mode" : 4}], "name" : "TV_samsung logo_ncl1_1"}, {"primitives" : [{"attributes" : {"POSITION" : 16, "NORMAL" : 17, "TEXCOORD_0" : 18}, "indices" : 15, "material" : 2, "mode" : 4}, {"attributes" : {"POSITION" : 20, "NORMAL" : 21, "TEXCOORD_0" : 22}, "indices" : 19, "material" : 4, "mode" : 4}], "name" : "fork_ncl1_1"}, {"primitives" : [{"attributes" : {"POSITION" : 24, "NORMAL" : 25, "TEXCOORD_0" : 26}, "indices" : 23, "material" : 5, "mode" : 4}], "name" : "screen_ncl1_1"}, {"primitives" : [{"attributes" : {"POSITION" : 28, "NORMAL" : 29, "TEXCOORD_0" : 30}, "indices" : 27, "material" : 6, "mode" : 4}], "name" : "leg001_ncl1_1"}, {"primitives" : [{"attributes" : {"POSITION" : 32, "NORMAL" : 33, "TEXCOORD_0" : 34}, "indices" : 31, "material" : 4, "mode" : 4}], "name" : "screw001_2_ncl1_1"}, {"primitives" : [{"attributes" : {"POSITION" : 36, "NORMAL" : 37, "TEXCOORD_0" : 38}, "indices" : 35, "material" : 4, "mode" : 4}], "name" : "screw001_1_ncl1_1"}, {"primitives" : [{"attributes" : {"POSITION" : 40, "NORMAL" : 41, "TEXCOORD_0" : 42}, "indices" : 39, "material" : 6, "mode" : 4}], "name" : "leg002_ncl1_1"}, {"primitives" : [{"attributes" : {"POSITION" : 44, "NORMAL" : 45, "TEXCOORD_0" : 46}, "indices" : 43, "material" : 4, "mode" : 4}], "name" : "screw002_2_ncl1_1"}, {"primitives" : [{"attributes" : {"POSITION" : 48, "NORMAL" : 49, "TEXCOORD_0" : 50}, "indices" : 47, "material" : 4, "mode" : 4}], "name" : "screw002_1_ncl1_1"}], "nodes" : [{"matrix" : [1, 0, 0, 0, 0, 6.123233995736766E-17, -1, 0, 0, 1, 6.123233995736766E-17, 0, 1.20962085929932E-05, 50.4547500610352, 5.23620653152466, 1], "mesh" : 0, "name" : "TV_body_front"}, {"matrix" : [1, 0, 0, 0, 0, 6.123233995736766E-17, -1, 0, 0, 1, 6.123233995736766E-17, 0, 2.12224003917072E-05, 50.4308547973633, -9.87380218505859, 1], "mesh" : 1, "name" : "TV_body_back"}, {"matrix" : [1, 0, 0, 0, 0, 6.123233995736766E-17, -1, 0, 0, 1, 6.123233995736766E-17, 0, -214.445770263672, -2.6811146736145, -150.493881225586, 1], "mesh" : 2, "name" : "cord"}, {"matrix" : [1, 0, 0, 0, 0, 6.123233995736766E-17, -1, 0, 0, 1, 6.123233995736766E-17, 0, -5.34343962499406E-06, 50.8375625610352, 8.84700012207031, 1], "mesh" : 3, "name" : "TV_samsung logo"}, {"matrix" : [0.9999999999999925, 8.742277657347521E-08, -8.742277657347522E-08, 0, -8.742278421621708E-08, 8.742277663470757E-08, -0.9999999999999925, 0, -8.742276893073269E-08, 0.9999999999999925, 8.742278427744943E-08, 0, 140.384674072266, 0, -261.487243652344, 1], "mesh" : 4, "name" : "fork"}, {"matrix" : [1, 0, 0, 0, 0, 6.123233995736766E-17, -1, 0, 0, 1, 6.123233995736766E-17, 0, 1.20962085929932E-05, 50.4547500610352, 5.23620653152466, 1], "mesh" : 5, "name" : "screen"}, {"matrix" : [1, 0, 0, 0, 0, 6.123233995736766E-17, -1, 0, 0, 1, 6.123233995736766E-17, 0, -360.293334960938, -0.019211336970329305, -2.52903389930725, 1], "mesh" : 6, "name" : "leg001"}, {"matrix" : [1, 0, 0, 0, 0, 6.123233995736766E-17, -1, 0, 0, 1, 6.123233995736766E-17, 0, -351.214172363281, 66.0214157104492, -25.6554470062256, 1], "mesh" : 7, "name" : "screw001_2"}, {"matrix" : [1, 0, 0, 0, 0, 6.123233995736766E-17, -1, 0, 0, 1, 6.123233995736766E-17, 0, -351.214172363281, 106.190864562988, -25.2487125396729, 1], "mesh" : 8, "name" : "screw001_1"}, {"matrix" : [1, 0, 0, 0, 0, 1.7484555320818206E-07, -0.9999999999999847, 0, 0, 0.9999999999999847, 1.7484555320818206E-07, 0, 370.293273925781, -0.019234225153923003, -2.52858304977417, 1], "mesh" : 9, "name" : "leg002"}, {"matrix" : [1, 0, 0, 0, 0, 6.123233995736766E-17, -1, 0, 0, 1, 6.123233995736766E-17, 0, 361.214172363281, 66.0214080810547, -25.6550312042236, 1], "mesh" : 10, "name" : "screw002_2"}, {"matrix" : [0.9999999999999925, 8.742277657347521E-08, -8.742277657347522E-08, 0, -8.742276893073336E-08, -8.742277651224288E-08, -0.9999999999999925, 0, -8.742278421621641E-08, 0.9999999999999925, -8.742276886950102E-08, 0, 361.214172363281, 106.190856933594, -25.248327255249, 1], "mesh" : 11, "name" : "screw002_1"}], "scene" : 0, "scenes" : [{"nodes" : [0, 1, 2, 3, 4, 5, 6, 7, 8, 9, 10, 11]}]}