<svg width="247" height="95" viewBox="0 0 247 95" fill="none" xmlns="http://www.w3.org/2000/svg">
<path d="M186.731 83.7132L181.436 79.2662C180.492 78.473 179.098 78.5331 178.225 79.4046C163.923 93.6877 141.076 94.6721 125.598 81.6722L122.733 79.2662C121.789 78.473 120.395 78.5331 119.522 79.4046C105.22 93.6877 82.3735 94.6721 66.8955 81.6722L64.0915 79.3172C63.1128 78.4952 61.6681 78.5574 60.7637 79.4606L59.1022 81.1198C45.5384 94.6653 23.9995 96.188 8.57256 84.7959C8.47933 84.727 8.37707 84.67 8.26842 84.6269L6.46127 83.9093C-1.10962 80.9031 -0.5543 70.0069 7.28298 67.7859C8.50436 67.4398 8.59092 65.7417 7.41104 65.2732L6.46126 64.896C-1.10962 61.8898 -0.5543 50.9936 7.28298 48.7726C8.50436 48.4265 8.59092 46.7284 7.41104 46.2599L6.46127 45.8828C-1.10961 42.8765 -0.554296 31.9803 7.28298 29.7594C8.53121 29.4057 8.56148 27.7035 7.40759 27.2453C-0.46259 24.1202 0.0623023 12.7923 8.15566 10.4988C8.31 10.4551 8.45449 10.3841 8.58227 10.2904C24.0654 -1.05431 45.6115 0.279212 59.4285 13.5865L60.7894 14.8971C61.6882 15.7628 63.0912 15.823 64.0609 15.0375L66.9684 12.6824C82.5496 0.0616458 105.093 1.02932 119.535 14.9388C120.409 15.7807 121.774 15.8392 122.717 15.0754L125.671 12.6824C141.252 0.0616449 163.796 1.02932 178.238 14.9388C179.112 15.7807 180.476 15.8392 181.419 15.0754L186.465 10.9888C201.302 -1.02989 222.623 -1.24729 237.868 10.2742C238.018 10.3881 238.192 10.469 238.376 10.511C247.014 12.4867 247.633 24.5654 239.351 27.2195C238.076 27.6281 238.138 29.4699 239.459 29.7721C247.796 31.6789 248.295 43.3665 240.151 45.9765L239.35 46.233C238.068 46.6441 238.146 48.485 239.459 48.7854C247.796 50.6922 248.295 62.3797 240.151 64.9898L239.35 65.2463C238.068 65.6574 238.146 67.4983 239.459 67.7986C247.796 69.7054 248.295 81.393 240.151 84.0031L238.279 84.6028C238.133 84.6498 237.996 84.7215 237.875 84.8136C222.68 96.3877 201.349 95.9907 186.731 83.7132Z" fill="#2BADE5" stroke="black" stroke-width="2"/>
</svg>
