<svg width="254" height="82" viewBox="0 0 254 82" fill="none" xmlns="http://www.w3.org/2000/svg">
<path d="M33.5888 68.3164L33.1362 67.8994C32.8125 67.6011 32.381 67.4478 31.9416 67.475L31.6149 67.4953C15.3506 68.5027 1.60645 55.5835 1.60645 39.288C1.60645 24.2495 13.3038 11.8053 28.3135 10.8756L32.1603 10.6373C32.4272 10.6208 32.6864 10.5415 32.9169 10.4059L33.4184 10.1108C52.247 -0.968366 75.6023 -0.968366 94.4309 10.1108C95.1424 10.5295 96.025 10.5295 96.7366 10.1108C115.565 -0.968364 138.92 -0.968364 157.749 10.1108C158.461 10.5295 159.343 10.5295 160.055 10.1108C178.883 -0.968363 202.239 -0.968363 221.067 10.1108L221.569 10.4059C221.799 10.5415 222.058 10.6208 222.325 10.6373L227.885 10.9816C241.932 11.8517 252.879 23.498 252.879 37.5722V38.9606C252.879 55.4335 238.985 68.4934 222.544 67.475C222.105 67.4478 221.673 67.6011 221.349 67.8994L220.897 68.3163C203.756 84.1089 177.366 84.1089 160.225 68.3164C159.477 67.6275 158.326 67.6275 157.579 68.3164C140.438 84.1089 114.048 84.1089 96.907 68.3164C96.1593 67.6275 95.0081 67.6275 94.2604 68.3164C77.1196 84.1089 50.7296 84.1089 33.5888 68.3164Z" fill="#A180FF" stroke="black" stroke-width="2"/>
</svg>
