<svg width="156" height="147" viewBox="0 0 156 147" fill="none" xmlns="http://www.w3.org/2000/svg" preserveAspectRatio="none">
    <path
        d="M111.598 25.8082L120.058 24.0282C148.522 18.0393 166.303 53.8523 144.326 72.9069L144.981 73.6625L144.326 74.418C166.303 93.4726 148.522 129.286 120.058 123.297L111.598 121.517L111.392 122.495L110.445 122.173C99.8471 153.345 55.7599 153.345 45.1616 122.173L44.2148 122.495L44.0089 121.517L35.5489 123.297C7.08478 129.286 -10.6959 93.4726 11.2811 74.418L10.6261 73.6625L11.2811 72.9069C-10.6959 53.8523 7.08479 18.0393 35.5489 24.0282L44.0089 25.8082L44.2148 24.8296L45.1616 25.1515C55.7599 -6.02029 99.8471 -6.02029 110.445 25.1515L111.392 24.8296L111.598 25.8082Z"
        fill="#EF8421" stroke="black" stroke-width="2" />
</svg>